<?xml version="1.0" standalone="no"?>
<!DOCTYPE svg PUBLIC "-//W3C//DTD SVG 1.1//EN" "http://www.w3.org/Graphics/SVG/1.1/DTD/svg11.dtd" >
<svg xmlns="http://www.w3.org/2000/svg" xmlns:xlink="http://www.w3.org/1999/xlink" version="1.1">
<metadata>
Created by FontForge 20170731 at Sat Oct 10 19:02:28 1992
 By Aleksey,,,
Typeface (c) 1992 Stephenson Blake (Holdings) Ltd. Data (c) 1992 URW. Portions (c) 1992 Microsoft Corp. All rights reserved.
</metadata>
<defs>
<font id="BaskOldFace" horiz-adv-x="1007" >
  <font-face 
    font-family="Baskerville Old Face"
    font-weight="400"
    font-stretch="normal"
    units-per-em="2048"
    panose-1="2 2 6 2 8 5 5 2 3 3"
    ascent="1638"
    descent="-410"
    x-height="850"
    cap-height="1365"
    bbox="-309 -539 2266 1805"
    underline-thickness="90"
    underline-position="-360"
    unicode-range="U+0020-F002"
  />
<missing-glyph horiz-adv-x="682" 
d="M68 0v1365h546v-1365h-546zM546 68v1229h-410v-1229h410z" />
    <glyph glyph-name=".notdef" horiz-adv-x="682" 
d="M68 0v1365h546v-1365h-546zM546 68v1229h-410v-1229h410z" />
    <glyph glyph-name="glyph1" horiz-adv-x="0" 
 />
    <glyph glyph-name="glyph2" horiz-adv-x="682" 
 />
    <glyph glyph-name="space" unicode=" " horiz-adv-x="512" 
 />
    <glyph glyph-name="exclam" unicode="!" horiz-adv-x="525" 
d="M269 350h-18l-94 747q-12 92 -12 142q0 66 33 103t91 37q55 0 87.5 -36t32.5 -99q0 -44 -12 -127zM258 226q50 0 85.5 -35.5t35.5 -86.5q0 -50 -35.5 -85.5t-85.5 -35.5t-85.5 35.5t-35.5 85.5q0 51 35.5 86.5t85.5 35.5z" />
    <glyph glyph-name="quotedbl" unicode="&#x22;" horiz-adv-x="499" 
d="M153 879h-22l-49 311q-7 43 -7 77q0 49 18.5 82.5t45.5 33.5q31 0 50.5 -32t19.5 -83q0 -31 -7 -78zM367 879h-22l-49 311q-7 43 -7 77q0 49 19 82.5t46 33.5q30 0 50 -32t20 -83q0 -31 -8 -78z" />
    <glyph glyph-name="numbersign" unicode="#" 
d="M698 469l-66 -469h-65l66 469h-314l-66 -469h-64l66 469h-200l8 59h200l48 337h-200l8 59h200l62 441h64l-62 -441h314l62 441h65l-62 -441h189l-8 -59h-189l-48 -337h189l-8 -59h-189zM641 528l48 337h-314l-47 -337h313z" />
    <glyph glyph-name="dollar" unicode="$" 
d="M496 1374v152h45v-152q103 -6 184 -45q67 -33 105 -87.5t38 -119.5q0 -51 -29.5 -86t-72.5 -35q-33 0 -56 23t-23 57q0 22 9 43l18 38q9 21 9 50q0 42 -24 73.5t-68 47.5q-37 13 -90 18v-547l10 -6q179 -104 253 -191q49 -58 76.5 -129.5t27.5 -143.5q0 -100 -48 -181
t-133 -125q-81 -41 -186 -54v-163h-45v160q-94 0 -190 39q-99 40 -153.5 110t-54.5 157q0 66 35 111.5t85 45.5q33 0 54.5 -21.5t21.5 -54.5q0 -34 -37 -83q-20 -28 -27.5 -46t-7.5 -40q0 -54 35.5 -100.5t95.5 -71.5q58 -24 135 -24h8v654l-57 33q-81 47 -123.5 78
t-76.5 68q-89 99 -89 226q0 80 38 149.5t105 111.5q87 54 203 61zM496 1353q-68 -4 -113 -25q-52 -25 -84 -81t-32 -125q0 -82 47 -149q26 -37 58.5 -63t113.5 -74l10 -6v523zM541 -4q47 5 76 16t55 32q44 36 70 97.5t26 131.5q0 201 -227 346v-623z" />
    <glyph glyph-name="percent" unicode="%" horiz-adv-x="1515" 
d="M227 -191l-36 29l924 1259l-35 -19q-104 -54 -172 -74.5t-146 -20.5q-41 0 -82 9q33 -54 45.5 -92t12.5 -85q0 -114 -82 -209q-51 -61 -122.5 -94t-149.5 -33q-74 0 -142.5 29.5t-122.5 83.5q-92 94 -92 216q0 60 24 119t68 107q50 55 119.5 86t143.5 31q50 0 94.5 -13.5
t98.5 -44.5q68 -41 100.5 -52t80.5 -11q120 0 270 76q98 50 210 147h60v-13zM170 813q0 -71 21.5 -137t58.5 -108q59 -66 139 -66q69 0 121 58q81 92 81 252q0 167 -81 255q-57 62 -134 62q-73 0 -130 -70q-35 -43 -55.5 -109t-20.5 -137zM786 313q0 129 92 225
q109 115 263 115q150 0 257 -116q89 -96 89 -216q0 -162 -131 -263q-98 -76 -223 -76q-69 0 -133.5 26t-114.5 73q-99 93 -99 232zM930 315q0 -71 21.5 -137t58.5 -108q59 -66 139 -66q69 0 121 58q82 92 82 252q0 167 -82 255q-57 62 -133 62q-74 0 -131 -70
q-35 -43 -55.5 -109t-20.5 -137z" />
    <glyph glyph-name="ampersand" unicode="&#x26;" horiz-adv-x="1379" 
d="M501 831l334 -464q70 131 98 201t28 119q0 97 -139 117v20h389v-20q-46 -4 -75 -15.5t-55 -35.5q-51 -48 -126 -204l-31 -64q-25 -54 -73 -141q38 -50 89.5 -107.5t91.5 -94.5q57 -52 99.5 -75.5t82.5 -23.5q43 0 72 24t51 78l20 -9q-50 -170 -215 -170q-55 0 -115 21
t-109 58q-75 56 -155 151q-44 -64 -72 -96q-58 -65 -135.5 -99.5t-165.5 -34.5q-81 0 -156.5 30t-123.5 82q-89 95 -89 240q0 143 86 260q34 46 81.5 86.5t130.5 94.5l16 11q-62 88 -88 139q-61 118 -61 211q0 58 28 115q35 75 103 114t163 39q124 0 204 -67.5t80 -173.5
q0 -78 -41 -138.5t-133 -118.5q-65 -42 -89 -59zM357 742q-83 -51 -129 -142t-46 -203q0 -77 24 -149t65 -122q38 -45 91.5 -70t112.5 -25q93 0 166 58q27 22 49 49t55 79zM482 853q47 37 70.5 65t41.5 67q35 74 35 159q0 100 -48 159t-129 59q-70 0 -113 -45t-43 -117
q0 -43 17.5 -86t66.5 -118q47 -72 102 -143z" />
    <glyph glyph-name="quotesingle" unicode="'" horiz-adv-x="284" 
d="M153 879h-22l-49 311q-7 43 -7 77q0 49 18.5 82.5t45.5 33.5q31 0 50.5 -32t19.5 -83q0 -31 -7 -78z" />
    <glyph glyph-name="parenleft" unicode="(" horiz-adv-x="601" 
d="M574 -246h-31q-149 160 -235 318q-67 124 -104 259.5t-37 255.5t38 260.5t103 261.5q43 81 97 153.5t138 164.5h31l-17 -31q-74 -139 -113.5 -240t-61.5 -212q-16 -80 -27 -181.5t-11 -171.5q0 -84 14 -201q21 -177 62.5 -302.5t136.5 -302.5z" />
    <glyph glyph-name="parenright" unicode=")" horiz-adv-x="601" 
d="M26 1427h31q149 -160 235 -318q67 -124 104 -259.5t37 -255.5t-38 -260.5t-103 -261.5q-43 -81 -97 -153.5t-138 -164.5h-31l17 31q74 139 113.5 240t61.5 212q17 80 27.5 181.5t10.5 172.5q0 83 -14 200q-21 177 -62.5 302.5t-136.5 302.5z" />
    <glyph glyph-name="asterisk" unicode="*" 
d="M504 1383q25 0 40 -11t15 -29q0 -22 -10 -60l-17 -60q-10 -36 -9 -48q0 -16 12 -17q5 0 36 18.5t66 42.5q41 28 66 28q20 0 34 -20.5t14 -48.5q0 -46 -86 -46l-62 -3q-61 0 -62 -19q-1 -12 90 -82q50 -38 50 -60q0 -21 -21 -42t-42 -21q-20 0 -33 14.5t-28 55.5l-21 58
q-20 54 -33 54t-33 -54l-22 -58q-14 -40 -26.5 -55t-30.5 -15q-22 0 -44 20.5t-22 41.5q0 23 50 61q90 69 90 82q1 8 -16.5 13.5t-45.5 5.5l-62 3q-86 0 -86 48q0 27 14 47.5t33 20.5q26 0 67 -29q39 -27 52 -35l42 -23l7 -3q13 0 13 22q0 10 -9 43l-17 60q-10 37 -10 59
q0 18 15.5 29.5t41.5 11.5z" />
    <glyph glyph-name="plus" unicode="+" 
d="M472 638h-406v62h406v385h62v-385h406v-62h-406v-385h-62v385z" />
    <glyph glyph-name="comma" unicode="," horiz-adv-x="488" 
d="M100 -298l-9 21q65 27 103 57t65 77q42 72 48 140q-27 -9 -47 -9q-55 0 -90 32.5t-35 84.5q0 50 35 86t84 36q60 0 97 -48t37 -127q0 -78 -37.5 -154.5t-99.5 -125.5q-65 -52 -151 -70z" />
    <glyph glyph-name="hyphen" unicode="-" horiz-adv-x="514" 
d="M34 509h446v-150h-446v150z" />
    <glyph glyph-name="hyphen" unicode="&#xad;" horiz-adv-x="514" 
d="M34 509h446v-150h-446v150z" />
    <glyph glyph-name="period" unicode="." horiz-adv-x="500" 
d="M250 226q50 0 85.5 -35.5t35.5 -86.5q0 -50 -35.5 -85.5t-85.5 -35.5t-85.5 35.5t-35.5 85.5q0 51 35.5 86.5t85.5 35.5z" />
    <glyph glyph-name="slash" unicode="/" horiz-adv-x="601" 
d="M-66 -246l615 1673h64l-616 -1673h-63z" />
    <glyph glyph-name="zero" unicode="0" 
d="M503 1383q105 0 196 -95q45 -46 89 -120t75 -151q68 -176 68 -334t-68 -335q-31 -78 -75 -151t-89 -119q-92 -96 -196 -96q-103 0 -196 96q-44 46 -88.5 119t-74.5 151q-69 178 -69 335q0 158 69 334q30 77 74.5 151t88.5 120q92 95 196 95zM503 1359q-40 0 -78.5 -30.5
t-68.5 -84.5q-23 -41 -46 -110.5t-38 -137.5q-32 -157 -32 -313t32 -313q15 -70 38 -139t46 -109q31 -56 69.5 -85.5t80.5 -29.5q37 0 76 30.5t69 84.5q22 40 45.5 109t37.5 139q33 158 33 313t-33 313q-14 68 -37.5 137.5t-45.5 110.5q-30 54 -68.5 84.5t-79.5 30.5z" />
    <glyph glyph-name="one" unicode="1" 
d="M561 1367h23v-1099q0 -77 13.5 -125.5t41.5 -72.5q48 -41 153 -50v-20h-577v20q67 5 100.5 16.5t59.5 39.5t35.5 67t9.5 119v955q-53 -6 -81 -6q-73 0 -119 14v18h23q77 0 146 25.5t150 82.5z" />
    <glyph glyph-name="two" unicode="2" 
d="M850 0h-777v20q123 109 246.5 243t211.5 254q124 168 178.5 290t54.5 228q0 143 -92 242q-77 82 -184 82q-93 0 -163 -58q-48 -38 -74 -98t-26 -131q0 -116 78 -192q34 -34 75.5 -52.5t82.5 -18.5q8 0 24 1l6 -17q-73 -38 -127 -38q-85 0 -152 63q-41 38 -63 94t-22 120
q0 153 110 251q114 100 287 100q94 0 174.5 -31.5t134.5 -90.5q49 -52 75 -122t26 -146q0 -150 -105 -307q-51 -75 -123 -148.5t-200 -180.5q-164 -135 -235 -200h361q91 0 129 11q51 14 85 51q38 41 61 117l22 -4z" />
    <glyph glyph-name="three" unicode="3" 
d="M629 733q297 -81 297 -337q0 -89 -38 -170q-54 -115 -168 -179.5t-263 -64.5q-90 0 -168 25.5t-127 70.5q-38 35 -59.5 83t-21.5 97q0 85 57 144t140 59l4 -18q-47 -38 -66.5 -77.5t-19.5 -95.5q0 -85 49 -153q37 -53 96 -81.5t128 -28.5q135 0 216 105q39 50 61.5 120.5
t22.5 141.5q0 80 -27.5 155.5t-72.5 119.5q-54 52 -117 52q-18 0 -34 -6.5t-43 -26.5q-51 -37 -89 -37q-29 0 -48.5 17t-19.5 43q0 30 24.5 49.5t62.5 19.5q19 0 34 -4l38 -10q19 -5 39 -5q69 0 132 62q87 86 87 229q0 69 -22 133.5t-62 111.5q-69 82 -170 82
q-84 0 -138 -52t-54 -134q0 -61 29.5 -104t79.5 -56l3 -18q-37 -14 -71 -14q-72 0 -116.5 43t-44.5 112q0 102 95.5 174.5t230.5 72.5q81 0 156.5 -25.5t128.5 -71.5q51 -44 78.5 -104.5t27.5 -128.5q0 -144 -110 -237q-52 -44 -147 -83z" />
    <glyph glyph-name="four" unicode="4" 
d="M572 325h-501v22l621 1022h44v-1008q67 0 95 8t50 35q16 20 23.5 44t10.5 65l1 23h20v-381h-20q-4 61 -12 89.5t-26 46.5q-20 20 -45 27t-75 7h-22v-102q0 -55 10 -91t31 -60q21 -25 47 -35t84 -17v-20h-503v20q99 9 130 41q20 22 28.5 60t8.5 108v96zM572 361v735
l-452 -735h452z" />
    <glyph glyph-name="five" unicode="5" 
d="M271 633l180 736q140 -35 260 -35q73 0 115.5 8t80.5 27q-9 -49 -25 -80t-45 -56q-53 -45 -163 -45q-83 0 -223 27l-109 -439q53 41 95.5 56.5t102.5 15.5q155 0 258 -111q47 -50 72.5 -116t25.5 -134q0 -105 -48 -211q-65 -141 -180.5 -217.5t-265.5 -76.5
q-81 0 -154.5 23.5t-121.5 63.5q-38 33 -59.5 76.5t-21.5 90.5q0 45 25.5 74.5t64.5 29.5q32 0 52.5 -23t20.5 -59q0 -14 -2 -40q-3 -22 -3 -41q0 -77 51.5 -123.5t135.5 -46.5q139 0 230 125q47 66 75 162t28 196q0 152 -59 243t-158 91q-68 0 -119 -48.5t-83 -142.5h-33z
" />
    <glyph glyph-name="six" unicode="6" 
d="M264 776q67 55 128.5 80t130.5 25q77 0 154 -35q116 -53 182.5 -159.5t66.5 -241.5q0 -98 -34.5 -186.5t-98.5 -154.5q-119 -122 -287 -122q-200 0 -318 168q-106 152 -106 396q0 198 64.5 372.5t183.5 300.5q80 84 164 124t180 40q104 0 173 -41t69 -103
q0 -33 -19.5 -54.5t-49.5 -21.5q-21 0 -38 9q-18 10 -29.5 27.5t-28.5 63.5q-19 50 -46.5 71t-74.5 21q-130 0 -234 -167q-106 -171 -132 -412zM246 428q0 -188 70 -303q72 -118 181 -118q55 0 104 32t85 92t58 148.5t22 175.5q0 89 -22.5 172.5t-61.5 137.5q-67 92 -176 92
q-94 0 -160 -79q-48 -58 -74 -149t-26 -201z" />
    <glyph glyph-name="seven" unicode="7" 
d="M904 1346l-487 -1235l-20 -51q-17 -41 -38.5 -59.5t-53.5 -18.5q-35 0 -60 22t-25 53q0 28 25 77l21 39l533 1013h-436q-54 0 -83 -5.5t-51 -19.5q-30 -20 -50 -50.5t-52 -104.5l-5 -12h-20l90 399h21q7 -33 22 -41.5t65 -8.5z" />
    <glyph glyph-name="eight" unicode="8" 
d="M616 753q77 -42 121.5 -75t79.5 -72q96 -106 96 -252q0 -157 -105 -261q-111 -111 -290 -111q-198 0 -321 119q-103 100 -103 237q0 147 114 244q49 42 174 107q-116 57 -177 133q-80 98 -80 222q0 134 90 228q51 53 123.5 82t155.5 29q74 0 143.5 -23.5t119.5 -65.5
q99 -84 99 -215q0 -122 -86 -211q-42 -44 -154 -115zM571 772q67 53 100.5 126.5t33.5 165.5q0 129 -65.5 212t-167.5 83q-97 0 -159.5 -70t-62.5 -179q0 -143 122 -237q66 -51 199 -101zM422 670q-95 -71 -141 -157t-46 -195q0 -133 74 -220q78 -91 208 -91q111 0 177 71
q36 38 56 93t20 115q0 139 -102 238q-78 76 -246 146z" />
    <glyph glyph-name="nine" unicode="9" 
d="M744 589q-67 -55 -129 -79.5t-131 -24.5q-76 0 -153 35q-117 53 -183 159.5t-66 240.5q0 99 34.5 187.5t98.5 153.5q118 122 287 122q200 0 317 -168q107 -152 107 -396q0 -198 -64.5 -372.5t-184.5 -300.5q-79 -84 -163 -124t-181 -40q-104 0 -172.5 41t-68.5 103
q0 33 19.5 54.5t49.5 21.5q20 0 37 -8q19 -10 30.5 -27.5t28.5 -62.5q18 -49 45.5 -70t74.5 -21q131 0 234 167q106 170 133 409zM762 938q0 187 -70 302q-72 117 -182 117q-55 0 -103.5 -31.5t-84.5 -91.5q-37 -60 -59 -148.5t-22 -174.5q0 -88 23 -170.5t62 -135.5
q67 -91 176 -91q94 0 160 78q48 58 74 147.5t26 198.5z" />
    <glyph glyph-name="colon" unicode=":" horiz-adv-x="500" 
d="M250 865q50 0 85.5 -35.5t35.5 -85.5t-35.5 -85.5t-85.5 -35.5t-85.5 35.5t-35.5 85.5t35.5 85.5t85.5 35.5zM250 226q50 0 85.5 -35.5t35.5 -86.5q0 -50 -35.5 -85.5t-85.5 -35.5t-85.5 35.5t-35.5 85.5q0 51 35.5 86.5t85.5 35.5z" />
    <glyph glyph-name="semicolon" unicode=";" horiz-adv-x="488" 
d="M100 -298l-9 21q65 27 103 57t65 77q42 72 48 140q-27 -9 -47 -9q-55 0 -90 32.5t-35 84.5q0 50 35 86t84 36q60 0 97 -48t37 -127q0 -78 -37.5 -154.5t-99.5 -125.5q-65 -52 -151 -70zM233 865q51 0 86.5 -35.5t35.5 -85.5t-35.5 -85.5t-86.5 -35.5q-50 0 -85.5 35
t-35.5 86q0 50 35.5 85.5t85.5 35.5z" />
    <glyph glyph-name="less" unicode="&#x3c;" 
d="M927 1257v-79l-634 -413l634 -424v-210l-848 568v13z" />
    <glyph glyph-name="equal" unicode="=" 
d="M66 795h874v-61h-874v61zM66 604h874v-61h-874v61z" />
    <glyph glyph-name="greater" unicode="&#x3e;" 
d="M79 131v79l634 413l-634 424v210l848 -568v-13z" />
    <glyph glyph-name="question" unicode="?" horiz-adv-x="945" 
d="M320 319h-33v503h33q9 -82 34 -126q26 -45 67.5 -71t88.5 -26q93 0 146 87.5t53 238.5q0 117 -31.5 213t-87.5 154q-31 31 -69 48.5t-74 17.5q-50 0 -85 -30q-34 -28 -44 -106q-4 -29 -10 -44t-18 -25q-21 -16 -47 -16q-32 0 -51.5 21.5t-19.5 56.5q0 56 50 98
q38 31 93.5 48.5t114.5 17.5q157 0 280 -110q74 -66 115 -156.5t41 -187.5q0 -86 -33 -156.5t-94 -117.5q-45 -35 -103 -55t-111 -20q-56 0 -108.5 18.5t-96.5 54.5v-330zM308 226q51 0 86.5 -35.5t35.5 -86.5q0 -50 -35.5 -85.5t-86.5 -35.5q-50 0 -85.5 35.5t-35.5 85.5
q0 51 35.5 86.5t85.5 35.5z" />
    <glyph glyph-name="at" unicode="@" horiz-adv-x="1527" 
d="M1229 170l31 -46q-54 -47 -113 -76q-79 -39 -168.5 -60.5t-173.5 -21.5q-124 0 -242 44q-213 78 -340 261.5t-127 411.5q0 161 66.5 305t188.5 245q95 80 213 123t239 43q136 0 263.5 -54t214.5 -148q73 -81 112 -183t39 -214q0 -126 -48.5 -233t-138.5 -177
q-62 -48 -136.5 -74t-148.5 -26q-133 0 -133 109q0 35 16 99l-8 3q-55 -102 -122 -155t-142 -53q-79 0 -133 56q-56 56 -56 162q0 102 51 213t140 204q66 68 137 106t134 38q47 0 79.5 -23t48.5 -66l11 -2l27 83l109 -1l-128 -431q-19 -64 -33.5 -137.5t-14.5 -106.5
q0 -24 13.5 -34t45.5 -10q57 0 120.5 32t115.5 87q126 134 126 326q0 132 -48 234.5t-148 184.5q-158 130 -364 130q-122 0 -236 -47q-185 -75 -294.5 -239t-109.5 -367q0 -156 64 -290.5t183 -228.5q86 -67 189.5 -103t211.5 -36q224 0 417 143zM943 940q0 43 -24 70
t-64 27q-96 0 -212 -189q-61 -100 -98 -207.5t-37 -187.5q0 -117 89 -117q52 0 110 52.5t109 145.5q46 86 87 210q40 120 40 196z" />
    <glyph glyph-name="A" unicode="A" horiz-adv-x="1420" 
d="M1441 0h-657v23q89 8 124 30q62 39 62 108q0 41 -28 110l-17 42l-96 236h-440l-52 -138l-25 -62q-45 -110 -45 -173q0 -37 16.5 -69t44.5 -52q39 -27 100 -32v-23h-448v23q53 3 93 26t78 74q32 41 62.5 105.5t80.5 193.5l366 943h57l435 -1051q49 -119 78 -170t63 -77
q24 -18 55 -27.5t93 -16.5v-23zM813 590l-210 518l-198 -518h408z" />
    <glyph glyph-name="B" unicode="B" horiz-adv-x="1378" 
d="M49 0v23q58 3 93.5 16.5t62.5 41.5q32 32 43 81t11 152v737q0 103 -11 152t-43 81q-27 29 -63 42t-93 16v23h657q100 0 131 -2q114 -9 189 -54q65 -40 100.5 -105t35.5 -146q0 -131 -81 -215q-29 -31 -66 -51.5t-107 -45.5q96 -16 149 -35t96 -53q64 -52 99.5 -129.5
t35.5 -167.5q0 -91 -36.5 -166.5t-101.5 -121.5q-59 -41 -140.5 -57t-229.5 -16h-731zM478 1334v-594h81q57 0 118 8q53 8 85.5 19t59.5 30q51 38 78.5 97.5t27.5 131.5q0 76 -28.5 144.5t-75.5 106.5q-41 33 -93.5 45t-159.5 12h-93zM478 709v-412q0 -75 10.5 -121
t34.5 -78q51 -67 175 -67q161 0 254.5 88t93.5 240q0 87 -29 161.5t-78 114.5q-90 74 -282 74h-179z" />
    <glyph glyph-name="C" unicode="C" horiz-adv-x="1371" 
d="M1279 1372l12 -447h-23q-11 29 -17 44q-35 96 -57 143q-39 84 -113 154q-56 53 -116 77t-135 24q-113 0 -196 -49q-73 -43 -136 -123.5t-103 -183.5q-57 -145 -57 -330q0 -157 39 -283t114 -211q138 -158 366 -158q114 0 205 39.5t141 111.5q58 83 84 224l23 -4
q-19 -158 -86 -251q-64 -89 -176.5 -136t-260.5 -47q-138 0 -264 41q-201 66 -314 238.5t-113 411.5q0 183 66 337.5t184 248.5q91 72 217.5 114.5t253.5 42.5q121 0 256 -46l82 -27q24 -9 42 -9q25 0 41 21q7 10 17 33h24z" />
    <glyph glyph-name="D" unicode="D" horiz-adv-x="1581" 
d="M49 23q58 3 93 16t63 42q31 32 42.5 81.5t11.5 151.5v737q0 110 -13.5 161t-52.5 84q-49 41 -144 46v23h550q183 0 233 -4q211 -16 358 -120q140 -99 218 -259.5t78 -349.5q0 -138 -44.5 -260.5t-123.5 -203.5q-111 -114 -277 -145q-124 -23 -253 -23h-739v23zM478 1334
v-994q0 -98 11 -149t41 -87q64 -78 208 -78q123 0 210.5 40.5t156.5 131.5q68 88 103.5 201.5t35.5 241.5q0 142 -43 270t-123 224q-111 133 -265 176q-84 23 -214 23h-121z" />
    <glyph glyph-name="E" unicode="E" horiz-adv-x="1276" 
d="M1124 1365l17 -330l-23 -1q-13 84 -43 139t-87 97q-47 35 -111 49.5t-170 14.5h-229v-600h60q91 0 137 12t75 43q28 29 41.5 68.5t22.5 116.5l23 -1l-4 -536h-23q-9 77 -26.5 124t-48.5 80q-30 32 -78 47t-122 15h-57v-229q0 -137 7 -199.5t27 -104.5
q34 -72 103.5 -105.5t183.5 -33.5q120 0 201 30.5t132 94.5q36 43 58.5 98t41.5 145l23 -1l-13 -398h-1193v23q57 3 92.5 16t63.5 42q31 32 42.5 81.5t11.5 151.5v737q0 102 -11.5 151.5t-42.5 81.5q-27 29 -62.5 42t-93.5 16v23h1075z" />
    <glyph glyph-name="F" unicode="F" horiz-adv-x="1115" 
d="M478 713v-399q0 -102 11 -150.5t42 -81.5q27 -29 63.5 -42.5t93.5 -16.5v-23h-639v23q48 0 91 15.5t67 41.5q28 31 40 85t12 149v737q0 64 -7 133q-10 88 -86 131q-42 23 -117 27v23h1045l29 -325l-23 -5q-25 76 -46 114q-47 87 -132 135q-49 28 -113 39t-176 11h-155
v-590h40q177 0 257 79q35 34 53 80.5t24 121.5l23 -1l-6 -606h-24q-11 102 -37.5 157.5t-80.5 89.5q-40 25 -98.5 36.5t-150.5 11.5z" />
    <glyph glyph-name="G" unicode="G" horiz-adv-x="1539" 
d="M1301 1365l12 -435l-23 -2q-69 222 -177 330.5t-261 108.5q-119 0 -204.5 -48.5t-159.5 -157.5q-150 -223 -150 -510q0 -137 36 -258.5t105 -214.5q134 -180 327 -180q76 0 143 32t110 88q59 78 59 185q0 99 -53.5 143t-176.5 44v23h638v-23q-88 -8 -123.5 -24.5
t-52.5 -56.5q-19 -44 -19 -175q0 -36 4 -112l2 -23q-38 14 -56 14q-22 0 -56 -23q-87 -60 -202 -92t-243 -32q-176 0 -317.5 60t-229.5 172q-66 84 -101.5 200t-35.5 246q0 179 64 333t180 254q95 81 219 125t262 44q80 0 148.5 -15t145.5 -49l59 -27q22 -9 40 -9
q40 0 61 65h26z" />
    <glyph glyph-name="H" unicode="H" horiz-adv-x="1666" 
d="M478 730h710v321q0 103 -11.5 152t-42.5 81q-28 29 -63.5 42t-93.5 16v23h639v-23q-57 -3 -92.5 -16t-63.5 -42q-31 -32 -42.5 -81.5t-11.5 -151.5v-737q0 -102 11.5 -151t42.5 -82q28 -28 63.5 -41.5t92.5 -16.5v-23h-639v23q58 3 93.5 16.5t63.5 41.5q31 32 42.5 81
t11.5 152v369h-710v-369q0 -102 11.5 -151.5t42.5 -81.5q27 -28 62.5 -41.5t93.5 -16.5v-23h-639v23q58 3 93.5 16.5t62.5 41.5q32 32 43 81t11 152v737q0 103 -11 152t-43 81q-27 29 -63 42t-93 16v23h639v-23q-57 -3 -92.5 -16t-63.5 -42q-31 -32 -42.5 -81.5
t-11.5 -151.5v-321z" />
    <glyph glyph-name="I" unicode="I" horiz-adv-x="737" 
d="M688 1365v-23q-57 -3 -92.5 -16t-63.5 -42q-39 -40 -48 -111q-6 -53 -6 -122v-737q0 -83 8 -131t26 -77q26 -40 67 -59.5t109 -23.5v-23h-639v23q58 3 93.5 16.5t62.5 41.5q32 32 43 81t11 152v737q0 103 -11 152t-43 81q-27 29 -63 42t-93 16v23h639z" />
    <glyph glyph-name="J" unicode="J" horiz-adv-x="689" 
d="M654 1365v-23q-53 -3 -85 -13t-59 -33q-38 -32 -52.5 -83t-14.5 -157v-893q0 -136 -20 -208.5t-73 -124.5q-53 -51 -143 -82.5t-184 -31.5q-56 0 -109 12t-85 32q-59 36 -59 96q0 36 23 59t60 23q36 0 61 -24q12 -12 21 -29.5t27 -64.5q17 -43 40 -61.5t60 -18.5
q48 0 83.5 31t54.5 90q25 81 25 311v885q0 63 -9 114q-11 65 -48 102q-58 61 -158 69v23h644z" />
    <glyph glyph-name="K" unicode="K" horiz-adv-x="1450" 
d="M478 696l423 420q63 62 78.5 84.5t15.5 49.5q0 49 -48 74q-25 12 -84 18v23h431v-23q-44 -4 -73.5 -14.5t-64.5 -35.5q-39 -28 -134 -119l-324 -311l461 -588l57 -73q63 -78 131 -122q41 -27 72 -38.5t78 -17.5v-23h-661v23q75 6 108 25t33 56q0 40 -41 102
q-20 30 -75 104t-93 120l-225 279l-65 -64v-331q0 -102 11.5 -151.5t42.5 -81.5q27 -28 62.5 -41.5t93.5 -16.5v-23h-639v23q58 3 93.5 16.5t62.5 41.5q32 32 43 81t11 152v737q0 103 -11 152t-43 81q-27 29 -63 42t-93 16v23h639v-23q-57 -3 -92.5 -16t-63.5 -42
q-31 -32 -42.5 -81.5t-11.5 -151.5v-355z" />
    <glyph glyph-name="L" unicode="L" horiz-adv-x="1249" 
d="M49 0v24q101 0 156 57q31 32 42.5 81.5t11.5 151.5v737q0 106 -12.5 156.5t-46.5 82.5q-28 26 -62.5 38t-88.5 14v23h639v-23q-55 -3 -90 -15t-62 -38q-34 -33 -46 -83t-12 -155v-577q0 -133 7 -198t27 -106q35 -72 104 -105.5t183 -33.5q119 0 200.5 31.5t133.5 97.5
q35 45 57.5 102t41.5 150l24 -2l-13 -410h-1194z" />
    <glyph glyph-name="M" unicode="M" horiz-adv-x="1826" 
d="M1776 1342q-57 -3 -91.5 -15.5t-63.5 -41.5q-22 -21 -33 -46.5t-15 -64.5q-7 -52 -7 -123v-737q0 -103 12 -153t43 -80q55 -53 155 -58v-23h-639v23q58 3 93.5 16.5t63.5 41.5q31 32 42.5 81.5t11.5 151.5v894l-515 -1208h-21l-512 1190v-876q0 -103 11.5 -152t42.5 -81
q28 -29 63.5 -42t92.5 -16v-23h-461v23q57 3 92.5 16t63.5 42q31 32 42.5 81.5t11.5 151.5v737q0 46 -3 87q-5 74 -23 108q-25 47 -68.5 69.5t-115.5 26.5v23h434l433 -1069l449 1069h411v-23z" />
    <glyph glyph-name="N" unicode="N" horiz-adv-x="1547" 
d="M300 1184v-870q0 -103 11.5 -152t42.5 -81q28 -29 63.5 -42t92.5 -16v-23h-461v23q57 3 92.5 16t63.5 42q31 32 42.5 81.5t11.5 151.5v738q0 101 -11.5 150.5t-42.5 81.5q-27 29 -62.5 42t-93.5 16v23h385l812 -1036v722q0 103 -11.5 152t-42.5 81q-28 29 -63.5 42
t-92.5 16v23h461v-23q-100 0 -156 -58q-31 -32 -42.5 -81.5t-11.5 -150.5v-1052h-45z" />
    <glyph glyph-name="O" unicode="O" horiz-adv-x="1661" 
d="M96 673q0 168 72 311.5t210 250.5q103 79 222 121.5t240 42.5q154 0 298 -67.5t252 -190.5q176 -200 176 -455q0 -128 -46 -247t-134 -217q-108 -122 -255.5 -189t-308.5 -67q-159 0 -304 65t-250 184q-83 93 -127.5 211.5t-44.5 246.5zM338 658q0 -290 158 -489
q71 -89 150.5 -129.5t183.5 -40.5q105 0 184.5 40t151.5 130q158 200 158 493q0 161 -43.5 304.5t-122.5 243.5q-64 82 -142.5 119.5t-185.5 37.5q-106 0 -183.5 -37t-143.5 -120q-79 -99 -122 -243t-43 -309z" />
    <glyph glyph-name="P" unicode="P" horiz-adv-x="1184" 
d="M478 673v-359q0 -102 11.5 -151.5t42.5 -81.5q27 -28 62.5 -41.5t93.5 -16.5v-23h-639v23q58 3 93.5 16.5t62.5 41.5q32 32 43 81t11 152v737q0 86 -7.5 132.5t-25.5 75.5q-26 40 -66 59.5t-104 23.5h-7v23h603q158 0 233 -16t137 -64q142 -108 142 -288
q0 -183 -144 -268q-75 -44 -182 -53q-34 -3 -164 -3h-196zM478 705h98q99 0 152.5 14.5t95.5 53.5q98 89 98 237q0 82 -28.5 150.5t-81.5 111.5q-61 51 -145 60q-23 2 -105 2h-84v-629z" />
    <glyph glyph-name="Q" unicode="Q" horiz-adv-x="1659" 
d="M1047 -2q59 -38 132.5 -59.5t147.5 -21.5q63 0 119.5 14.5t90.5 39.5q30 22 47.5 51.5t31.5 81.5l16 -2q-4 -73 -24.5 -123.5t-65.5 -97.5q-119 -124 -344 -124q-131 0 -220 47q-80 43 -171 155l-6 7q-88 0 -182.5 27.5t-177.5 77.5q-164 98 -254.5 257t-90.5 346
q0 167 72 310.5t210 250.5q101 79 221 121.5t241 42.5q142 0 276 -57q102 -45 190.5 -120.5t149.5 -170.5q108 -168 108 -366q0 -127 -45.5 -245.5t-131.5 -217.5q-71 -82 -150 -134t-190 -90zM489 172q73 21 145 21q89 0 171 -35q35 -15 72 -39t120 -84l9 -7
q65 35 112.5 82t92.5 123q111 183 111 428q0 160 -43.5 305t-122.5 244q-64 81 -142.5 119t-183.5 38q-106 0 -184.5 -37.5t-142.5 -119.5q-78 -99 -121.5 -243.5t-43.5 -304.5q0 -148 36 -264.5t115 -225.5zM778 -6l-7 8q-70 84 -119 118t-100 34q-19 0 -42 -8
q63 -73 123.5 -107t144.5 -45z" />
    <glyph glyph-name="R" unicode="R" horiz-adv-x="1326" 
d="M478 668v-354q0 -102 11.5 -151.5t42.5 -81.5q27 -28 62.5 -41.5t93.5 -16.5v-23h-639v23q58 3 93.5 16.5t62.5 41.5q32 32 43 81t11 152v737q0 103 -11 152t-43 81q-27 29 -63 42t-93 16v23h482q121 0 159 -1q155 -7 243 -42q99 -40 153.5 -119.5t54.5 -184.5
q0 -156 -118 -250q-36 -28 -79.5 -46t-116.5 -34q60 -25 89 -52q23 -21 42 -52.5t57 -111.5q89 -183 134.5 -267.5t76.5 -122.5q25 -31 48.5 -43t64.5 -16v-23h-332q-25 55 -32 70l-70 159q-63 143 -127 253q-64 109 -117 149q-27 20 -58 28.5t-76 8.5h-49zM478 690h38
q124 0 177.5 14t100.5 58q105 100 105 248q0 79 -30.5 148.5t-84.5 114.5q-42 34 -100 47.5t-165 13.5h-41v-644z" />
    <glyph glyph-name="S" unicode="S" horiz-adv-x="1059" 
d="M98 3l3 413h23q42 -158 100 -249q109 -168 274 -168q115 0 190 77t75 195q0 51 -16.5 104t-44.5 91q-29 39 -81.5 75t-160.5 91q-95 48 -145.5 81t-81.5 67q-86 94 -86 229q0 83 33.5 160t93.5 132q106 98 251 98q47 0 87 -9.5t107 -37.5q50 -20 68 -25.5t32 -5.5
q35 0 47 51h23l7 -397h-23q-27 95 -46.5 145.5t-46.5 93.5q-49 78 -108 115.5t-136 37.5q-112 0 -177 -76q-27 -31 -42.5 -73t-15.5 -84q0 -167 215 -269l141 -68q163 -77 235 -170q82 -104 82 -242q0 -92 -37 -176q-52 -117 -156 -180.5t-245 -63.5q-129 0 -248 51
q-62 27 -74 31t-27 4q-48 0 -66 -48h-23z" />
    <glyph glyph-name="T" unicode="T" horiz-adv-x="1406" 
d="M589 1334q-63 0 -135 -4q-154 -8 -229.5 -39t-124.5 -107q-45 -70 -69 -190l-23 2l18 369h1353l18 -369l-23 -2q-27 139 -84.5 210.5t-167.5 102.5q-93 27 -315 27v-1020q0 -102 11.5 -151.5t42.5 -81.5q28 -29 63.5 -42t92.5 -16v-23h-639v23q58 3 93.5 16t63.5 42
q31 32 42.5 81t11.5 152v1020z" />
    <glyph glyph-name="U" unicode="U" horiz-adv-x="1542" 
d="M674 1365v-23q-57 -3 -93 -16t-63 -42q-33 -34 -43.5 -84t-10.5 -172v-566q0 -138 10.5 -199.5t42.5 -113.5q48 -79 118.5 -114.5t177.5 -35.5q104 0 198.5 31.5t157.5 87.5q39 35 57.5 76t24.5 104q4 41 4 194v559q0 103 -11.5 152t-42.5 81q-28 29 -63.5 42t-92.5 16
v23h461v-23q-57 -3 -92.5 -16t-63.5 -42q-31 -32 -42.5 -81.5t-11.5 -151.5v-631q0 -140 -21.5 -206.5t-85.5 -121.5q-146 -126 -417 -126q-283 0 -417 119q-87 76 -104 200q-6 44 -6 159v607q0 103 -11 152t-43 81q-27 29 -62.5 42t-93.5 16v23h639z" />
    <glyph glyph-name="V" unicode="V" horiz-adv-x="1388" 
d="M-34 1365h660v-23q-75 -7 -108 -23q-31 -15 -50 -46.5t-19 -68.5q0 -26 5 -46t30 -87l296 -805l287 706q60 149 60 217q0 38 -12 71t-32 51q-20 17 -44 24t-62 7v23h445v-23q-55 -5 -95.5 -27t-77.5 -67q-25 -32 -52.5 -87.5t-75.5 -171.5l-410 -989h-42l-398 1022
q-78 201 -125 255q-30 34 -73.5 49.5t-106.5 15.5v23z" />
    <glyph glyph-name="W" unicode="W" horiz-adv-x="2152" 
d="M-34 1365h629v-23q-88 0 -120 -13q-27 -12 -44 -39t-17 -61q0 -42 32 -116l26 -62l311 -760l217 655q42 126 42 188q0 46 -16.5 89.5t-43.5 70.5q-26 26 -59.5 37t-85.5 11v23h643v-23q-59 0 -85.5 -4t-49.5 -17q-30 -18 -48.5 -51.5t-18.5 -72.5q0 -36 28 -125l246 -793
l275 675q64 155 64 240q0 89 -59 126q-36 22 -109 22v23h463v-23q-67 -7 -101.5 -25.5t-68.5 -67.5q-50 -70 -125 -253l-411 -996h-41l-356 1065l-361 -1065h-45l-447 1076l-30 73q-31 74 -52 107t-51 52q-24 16 -52 23t-79 11v23z" />
    <glyph glyph-name="X" unicode="X" horiz-adv-x="1483" 
d="M27 1365h659v-23q-69 0 -106 -12q-60 -19 -60 -72q0 -55 82 -174l175 -256l153 189q90 111 117 155.5t27 82.5q0 53 -56 73q-26 10 -91 14v23h459v-23q-76 0 -118 -20q-65 -30 -173 -166l-76 -96l-217 -269l344 -511q91 -136 165 -197q38 -31 74.5 -44t97.5 -16v-23h-694
v23q81 9 118 28q60 30 60 84q0 19 -12 44t-45 75l-245 370l-238 -290q-55 -67 -78.5 -111.5t-23.5 -82.5q0 -54 40.5 -83.5t120.5 -33.5v-23h-486v23q55 10 91.5 28.5t85.5 64.5q72 66 203 225l260 318l-310 465l-53 77q-58 85 -98 110q-36 22 -122 29q-10 0 -30 2v23z" />
    <glyph glyph-name="Y" unicode="Y" horiz-adv-x="1345" 
d="M375 0v23q57 3 93 16t64 42q31 32 42 81t11 152l1 195q0 42 -17 93q-19 59 -78 148l-259 389l-46 70q-51 76 -100 104q-25 15 -50 21t-70 8v23h652v-23q-83 -5 -106 -15q-56 -24 -56 -87q0 -23 12.5 -52t40.5 -73l271 -424l232 362l26 41q37 58 37 114q0 64 -41 99
t-115 35v23h460v-23q-52 -6 -80 -17.5t-57 -37.5q-68 -64 -151 -191l-228 -348q-41 -62 -50 -91t-9 -98v-245q0 -107 10.5 -153.5t42.5 -79.5q55 -58 157 -58v-23h-639z" />
    <glyph glyph-name="Z" unicode="Z" horiz-adv-x="1255" 
d="M73 1365h1071v-23l-865 -1311h320q280 0 408 80q103 63 165 193q26 55 39 127l23 -1l-31 -430h-1183v23l873 1311h-286q-155 0 -244.5 -22.5t-160.5 -78.5q-58 -46 -88.5 -101.5t-40.5 -133.5l-23 2z" />
    <glyph glyph-name="bracketleft" unicode="[" horiz-adv-x="601" 
d="M235 1427h300v-27q-85 -5 -146 -31v-1557q61 -26 146 -31v-27h-300v1673z" />
    <glyph glyph-name="backslash" unicode="\" horiz-adv-x="601" 
d="M667 -246h-64l-615 1673h63z" />
    <glyph glyph-name="bracketright" unicode="]" horiz-adv-x="601" 
d="M366 -246h-300v27q85 5 146 31v1557q-61 26 -146 31v27h300v-1673z" />
    <glyph glyph-name="asciicircum" unicode="^" horiz-adv-x="1024" 
d="M1075 585h-79l-413 635l-424 -635h-210l568 849h13z" />
    <glyph glyph-name="underscore" unicode="_" horiz-adv-x="1024" 
d="M45 -180h933v-90h-933v90z" />
    <glyph glyph-name="grave" unicode="`" horiz-adv-x="1024" 
d="M628 1000h-49l-320 273h186z" />
    <glyph glyph-name="a" unicode="a" horiz-adv-x="874" 
d="M882 97l17 -10q-36 -105 -165 -105q-71 0 -118 35q-31 23 -64 80q-67 -60 -101 -79q-65 -36 -151 -36q-110 0 -174.5 53t-64.5 143q0 83 53 139q30 31 69 49.5t113 37.5q87 22 128.5 37t69.5 36q32 23 44 54t12 86q0 117 -44 171q-20 25 -51.5 40t-65.5 15q-41 0 -73 -21
t-48 -58l-25 -58q-20 -47 -72 -47q-34 0 -57 22.5t-23 56.5q0 51 72 86q39 18 96.5 29.5t112.5 11.5q62 0 129 -16t112 -41q65 -37 81 -96q8 -30 8 -101v-370q0 -94 8 -128q17 -71 82 -71q31 0 48.5 11t41.5 44zM552 491q-54 -45 -119 -79q-73 -39 -101 -59t-51 -48
q-47 -58 -47 -135q0 -66 36.5 -109t92.5 -43q49 0 92.5 30.5t65.5 81.5q31 67 31 194v167z" />
    <glyph glyph-name="b" unicode="b" horiz-adv-x="1049" 
d="M319 740q42 52 80 77q77 49 184 49q152 0 265 -97q140 -119 140 -336t-134 -342q-116 -109 -297 -109q-95 0 -161 26l-56 23q-23 9 -41 9q-51 0 -90 -83h-40v1173q0 112 -35.5 160.5t-119.5 48.5v24l305 42v-665zM319 437q0 -107 12 -197t31 -131q23 -49 68.5 -77
t103.5 -28q122 0 201.5 116t79.5 295q0 94 -26 178.5t-74 143.5q-38 49 -84 74.5t-94 25.5q-58 0 -108 -35.5t-74 -92.5q-36 -84 -36 -272z" />
    <glyph glyph-name="c" unicode="c" horiz-adv-x="852" 
d="M775 189l20 -7q-35 -106 -107 -153t-198 -47q-202 0 -317 120q-112 118 -112 298q0 88 31 174t85 147q61 70 149.5 107t193.5 37q145 0 227 -65q50 -40 50 -88q0 -32 -21 -53.5t-51 -21.5q-65 0 -96 95q-14 44 -22.5 60t-24.5 28q-31 23 -76 23q-59 0 -109 -33
q-44 -29 -74.5 -72.5t-53.5 -109.5q-35 -101 -35 -198q0 -89 32 -174t87 -142q86 -90 202 -90q96 0 159 61q32 32 61 104z" />
    <glyph glyph-name="d" unicode="d" horiz-adv-x="1073" 
d="M754 -32q-10 49 -10 104q-74 -48 -139.5 -69t-140.5 -21q-152 0 -260 91q-69 58 -106 145.5t-37 191.5q0 110 40 203.5t112 155.5q114 96 271 96q76 0 130 -22t126 -80v371q0 109 -36 157t-119 48v24l305 39v-1159q0 -113 36 -161t119 -48v-25zM740 432q0 139 -12 208.5
t-43 113.5q-27 38 -72.5 61t-93.5 23q-107 0 -185 -100q-47 -60 -73.5 -143t-26.5 -171q0 -86 25 -168.5t68 -141.5q75 -102 184 -102q52 0 99 26t76 72q30 48 42 118.5t12 203.5z" />
    <glyph glyph-name="e" unicode="e" horiz-adv-x="923" 
d="M238 544q-4 -49 -4 -71q0 -87 25.5 -170t69.5 -138q45 -56 111.5 -88t139.5 -32q54 0 102.5 18t80.5 50q36 35 62 112l20 -7q-26 -117 -111.5 -176.5t-227.5 -59.5q-123 0 -211 39t-149 120q-85 113 -85 278q0 225 161 353q117 93 267 93q80 0 148 -28.5t115 -82.5
q73 -84 73 -210h-587zM676 583q-7 100 -37 154q-27 49 -72 77.5t-96 28.5q-86 0 -150.5 -74t-76.5 -186h432z" />
    <glyph glyph-name="f" unicode="f" horiz-adv-x="573" 
d="M325 812v-523l1 -76q0 -68 8 -99.5t31 -52.5q28 -27 103 -41v-20h-441v20q60 8 86 22.5t42 49.5q11 23 15.5 69.5t4.5 134.5v516h-145v38h145v244q0 88 22.5 139t80.5 94q52 38 127.5 59.5t159.5 21.5q78 0 125 -27t47 -72q0 -30 -19.5 -50t-47.5 -20q-27 0 -47 14.5
t-40 47.5q-28 46 -46 60.5t-49 14.5q-38 0 -72 -15.5t-53 -40.5q-21 -28 -29 -73.5t-8 -131.5v-265h197v-38h-198z" />
    <glyph glyph-name="g" unicode="g" horiz-adv-x="843" 
d="M277 -85l-18 -5q-17 28 -34 39t-42 11q-42 0 -68.5 -32t-26.5 -83q0 -81 81 -133t207 -52q134 0 216.5 57.5t82.5 149.5q0 74 -55 113.5t-157 39.5h-159q-98 0 -158 46q-62 48 -62 115q0 71 66 112q34 20 124 43q-87 40 -135 105.5t-48 144.5q0 101 75 180q44 47 104 73
t123 26q96 0 196 -68q47 37 84.5 52.5t81.5 15.5q49 0 79 -21q36 -26 36 -64q0 -23 -14 -38.5t-35 -15.5q-32 0 -58 34l-23 30q-19 24 -54 24q-37 0 -78 -37q81 -99 81 -204q0 -131 -116 -207q-58 -38 -125 -51q-20 -3 -127 -10q-147 -9 -147 -82q0 -64 125 -64h165
q87 0 147 -15.5t105 -48.5q88 -65 88 -183q0 -130 -102 -203q-105 -75 -308 -75q-218 0 -309 88q-58 57 -58 142q0 67 43 113.5t105 46.5q45 0 73.5 -27t28.5 -71v-11zM233 579q0 -108 45.5 -176t116.5 -68q72 0 112 67.5t40 187.5q0 124 -52 198q-38 55 -98 55
q-72 0 -116 -72q-22 -36 -35 -88t-13 -104z" />
    <glyph glyph-name="h" unicode="h" horiz-adv-x="1073" 
d="M325 1405v-685q35 43 62 67t65 42q73 36 166 36q118 0 195 -47q55 -35 75.5 -85.5t20.5 -151.5v-292l1 -76q0 -68 8 -99.5t31 -52.5q28 -27 103 -41v-20h-441v20q53 7 75.5 17t40.5 34q18 25 25 68t7 127v317q0 72 -11 114t-37 73q-51 59 -144 59q-242 0 -242 -382v-160
l1 -74q0 -68 8 -99.5t31 -52.5q28 -27 103 -41v-20h-441v20q60 8 86 22.5t42 49.5q11 23 15.5 69.5t4.5 134.5v785q0 102 -5 144t-22 68q-17 28 -41 40t-69 15v21z" />
    <glyph glyph-name="i" unicode="i" horiz-adv-x="496" 
d="M38 831l287 36v-578l1 -76q0 -68 8 -99.5t31 -52.5q28 -27 103 -41v-20h-441v20q60 8 86 22.5t42 49.5q11 23 15.5 69.5t4.5 134.5v247q0 103 -5 144.5t-22 67.5q-17 28 -41 40.5t-69 15.5v20zM246 1224q-39 0 -64.5 25t-25.5 63q0 37 26 62.5t64 25.5t64 -25.5t26 -62.5
q0 -38 -25.5 -63t-64.5 -25z" />
    <glyph glyph-name="j" unicode="j" horiz-adv-x="433" 
d="M313 867v-760q0 -132 -1 -160q-6 -104 -39 -168q-70 -134 -252 -134q-97 0 -154.5 34t-57.5 91q0 31 17 51t44 20q48 0 65 -58l14 -48q21 -68 89 -68q35 0 62.5 18.5t41.5 53.5q11 26 16 81t5 147v624q0 113 -35.5 161.5t-119.5 48.5v25zM234 1224q-39 0 -65 25t-26 63
q0 37 26.5 62.5t64.5 25.5t64 -25.5t26 -62.5q0 -38 -25.5 -63t-64.5 -25z" />
    <glyph glyph-name="k" unicode="k" horiz-adv-x="1023" 
d="M325 404l182 199q56 63 75 93.5t19 61.5q0 43 -44 60q-19 8 -71 11v21h385v-21q-73 0 -118 -25t-118 -104l-40 -45l-109 -117l258 -290q32 -35 42 -45l45 -46q54 -54 78 -74t57 -38q38 -20 98 -25v-20h-469v20q42 4 59 14q24 15 24 42q0 29 -29 61l-21 24l-242 268
l-61 -67v-73l1 -76q0 -68 8 -99.5t31 -52.5q28 -27 103 -41v-20h-441v20q60 8 86 22.5t42 49.5q11 23 15.5 69.5t4.5 134.5v785q0 102 -5 144t-22 68q-17 28 -41 40t-69 15v21l287 36v-1001z" />
    <glyph glyph-name="l" unicode="l" horiz-adv-x="496" 
d="M38 1369l287 36v-1116l1 -76q0 -68 8 -99.5t31 -52.5q28 -27 103 -41v-20h-441v20q60 8 86 22.5t42 49.5q11 23 15.5 69.5t4.5 134.5v785q0 102 -5 144t-22 68q-17 28 -41 40t-69 15v21z" />
    <glyph glyph-name="m" unicode="m" horiz-adv-x="1638" 
d="M312 865q18 -70 23 -139q63 67 141.5 103t163.5 36q94 0 157 -48q38 -29 87 -101q76 77 153 113t166 36q120 0 195.5 -65.5t75.5 -171.5v-339l1 -76q0 -68 8 -99.5t30 -52.5q29 -27 104 -41v-20h-441v20q60 8 85.5 22.5t42.5 49.5q11 23 15.5 69.5t4.5 133.5v191
q0 111 -7 162t-27 87q-47 85 -162 85q-124 0 -180 -92q-49 -79 -49 -246v-193l1 -76q0 -68 8 -99.5t30 -52.5q28 -27 104 -41v-20h-441v20q60 8 85.5 22.5t42.5 49.5q11 23 15.5 69.5t4.5 133.5v185q0 117 -7.5 171.5t-28.5 88.5q-22 36 -62 56.5t-90 20.5q-57 0 -107 -27
t-79 -73q-27 -41 -38.5 -98.5t-11.5 -148.5v-183l1 -74q0 -68 8 -99.5t31 -52.5q28 -27 103 -41v-20h-441v20q60 8 86 22.5t42 49.5q11 23 15.5 69.5t4.5 134.5v247q0 103 -5 144.5t-22 67.5q-17 28 -41 40.5t-69 15.5v20z" />
    <glyph glyph-name="n" unicode="n" horiz-adv-x="1066" 
d="M311 867q14 -58 14 -108v-16q124 122 295 122q128 0 206 -60q77 -59 77 -168v-424q0 -68 8 -99.5t31 -52.5q28 -27 103 -41v-20h-441v20q60 8 86 22.5t42 49.5q11 23 15.5 69.5t4.5 133.5v212q0 109 -7.5 160t-28.5 82q-23 35 -66 54.5t-95 19.5q-56 0 -104.5 -22
t-76.5 -60q-30 -40 -39.5 -90.5t-9.5 -167.5v-196l1 -74q0 -68 8 -99.5t31 -52.5q28 -27 103 -41v-20h-441v20q60 8 86 22.5t42 49.5q11 23 15.5 69.5t4.5 134.5v247q0 103 -5 144.5t-22 67.5q-17 28 -41 40.5t-69 15.5v20z" />
    <glyph glyph-name="o" unicode="o" horiz-adv-x="1060" 
d="M61 422q0 162 120 289q146 154 349 154t348 -154q120 -128 120 -290q0 -160 -114 -285q-140 -154 -354 -154t-355 154q-55 60 -84.5 134t-29.5 152zM243 433q0 -174 78 -295q88 -135 215 -135q54 0 105 30t88 84q39 56 63 140.5t24 163.5q0 82 -25.5 165.5t-68.5 143.5
q-82 113 -201 113q-113 0 -195 -119q-83 -119 -83 -291z" />
    <glyph glyph-name="p" unicode="p" horiz-adv-x="1073" 
d="M332 84l1 -184v-69q0 -68 8 -99.5t31 -53.5q28 -27 103 -40v-20h-441v20q60 8 86 22t42 49q11 23 15.5 70t4.5 134v691q0 113 -35.5 161t-119.5 48v25l291 41q11 -48 11 -88v-19q74 50 139 71.5t141 21.5q152 0 260 -91q68 -58 105 -145t37 -192q0 -109 -39.5 -203
t-112.5 -155q-114 -97 -271 -97q-75 0 -129.5 22t-126.5 80zM332 416q0 -138 12 -208t43 -113q28 -38 73.5 -61t92.5 -23q106 0 185 100q48 60 74 142t26 171q0 86 -24.5 168.5t-68.5 141.5q-75 102 -183 102q-53 0 -100 -26t-75 -71q-31 -48 -43 -119.5t-12 -203.5z" />
    <glyph glyph-name="q" unicode="q" horiz-adv-x="1036" 
d="M879 890v-1059q0 -68 8 -99.5t31 -53.5q28 -27 104 -40v-20h-442v20q60 8 86 22t42 49q11 23 16 70t5 134v194q-42 -52 -81 -76q-76 -49 -183 -49q-152 0 -265 96q-139 120 -139 336q0 205 118.5 328t317.5 123q82 0 142 -26l52 -23q19 -8 36 -8q52 0 91 82h61zM729 410
q0 108 -12 197.5t-31 130.5q-24 50 -69 77.5t-104 27.5q-116 0 -192 -104q-41 -56 -64 -136.5t-23 -170.5q0 -94 26 -178.5t74 -144.5q38 -49 83.5 -74.5t93.5 -25.5q58 0 107.5 35.5t74.5 93.5q36 83 36 272z" />
    <glyph glyph-name="r" unicode="r" horiz-adv-x="712" 
d="M312 711q36 63 81 95q83 59 189 59q65 0 99 -29q31 -26 31 -64q0 -28 -18.5 -46t-47.5 -18q-34 0 -59 28l-31 34q-37 39 -87 39q-68 0 -106 -88t-38 -245v-187l1 -76q0 -68 8 -99.5t31 -52.5q28 -27 103 -41v-20h-441v20q60 8 86 22.5t42 49.5q11 23 15.5 69.5t4.5 134.5
v247q0 103 -5 144.5t-22 67.5q-17 28 -41 40.5t-69 15.5v20l257 36q17 -91 17 -156z" />
    <glyph glyph-name="s" unicode="s" horiz-adv-x="724" 
d="M96 0v283h16q28 -104 70 -166q77 -113 180 -113q63 0 109 38q50 42 50 119q0 63 -36 110q-20 25 -50.5 46t-102.5 59q-126 67 -168 112q-60 64 -60 148q0 90 60 155q69 74 183 74q51 0 95 -18l34 -15q16 -6 28 -6q19 0 36 30h20l11 -227h-21q-11 48 -23.5 77t-35.5 56
q-31 38 -72 59.5t-81 21.5q-56 0 -95.5 -40.5t-39.5 -99.5q0 -49 35.5 -88.5t109.5 -72.5l106 -48q95 -43 142 -107t47 -151q0 -105 -68 -174q-78 -80 -200 -80q-66 0 -134 26q-44 17 -53 19.5t-23 2.5q-35 0 -53 -30h-16z" />
    <glyph glyph-name="t" unicode="t" horiz-adv-x="531" 
d="M285 850h255v-38h-255v-582q0 -105 36 -150q19 -25 50 -39t67 -14q45 0 75 18.5t66 67.5l15 -13q-33 -60 -92.5 -89t-148.5 -29q-118 0 -172 46q-29 24 -38 57.5t-9 120.5v606h-107v16q65 21 120 81q33 37 53 73.5t38 94.5l10 33h37v-260z" />
    <glyph glyph-name="u" unicode="u" horiz-adv-x="1048" 
d="M747 -17q-13 60 -13 123q-125 -124 -296 -124q-125 0 -201 61q-74 60 -74 170v348l-1 76q0 68 -8 99t-30 53q-29 27 -104 40v21h293v-507q0 -107 7.5 -158.5t27.5 -84.5q22 -34 63 -53.5t92 -19.5q56 0 105 22t77 60q29 39 38.5 90t9.5 168v196l-1 74q0 68 -7.5 99
t-30.5 53q-28 27 -104 40v21h293v-543q0 -103 5.5 -144.5t21.5 -67.5q18 -28 42 -40.5t69 -15.5v-20z" />
    <glyph glyph-name="v" unicode="v" horiz-adv-x="848" 
d="M-14 850h387v-21q-44 -9 -60 -20q-32 -20 -32 -64q0 -27 10 -63t37 -105l162 -411l163 428q36 95 36 141q0 50 -31 73q-16 12 -59 21v21h276v-21q-56 -14 -90 -50q-43 -45 -99 -189l-231 -590h-54l-251 620q-58 143 -83 173q-14 16 -31 23.5t-50 12.5v21z" />
    <glyph glyph-name="w" unicode="w" horiz-adv-x="1257" 
d="M-18 850h388v-21q-112 -6 -112 -87q0 -40 40 -166l122 -373l170 451q20 52 20 84q0 86 -104 91v21h382v-21q-49 -7 -69 -21q-32 -22 -32 -66q0 -35 19 -99l132 -440l156 396q30 77 30 117q0 54 -38 83q-19 16 -69 30v21h294v-21q-43 0 -77 -28q-22 -17 -41.5 -51.5
t-46.5 -103.5l-21 -51l-237 -595h-35l-219 668l-264 -668h-34l-199 606l-24 73q-33 99 -68 125q-20 16 -63 25v21z" />
    <glyph glyph-name="x" unicode="x" horiz-adv-x="913" 
d="M40 850h389v-21q-35 -5 -54.5 -21.5t-19.5 -42.5q0 -18 9.5 -39.5t39.5 -70.5l25 -41l61 -100l120 153q34 42 45.5 63t11.5 41q0 49 -57 58v21h264v-21q-61 -13 -112.5 -52t-113.5 -117l-137 -174l202 -316q47 -73 87 -108q24 -20 43.5 -28.5t50.5 -13.5v-20h-401v20
q36 6 51 13q30 16 30 46t-37 86l-22 34l-103 161l-132 -163q-35 -43 -47 -64.5t-12 -41.5q0 -55 83 -71v-20h-281v20q28 5 46.5 13t42.5 26q41 32 104 111l178 221l-187 283q-56 84 -86.5 112.5t-80.5 42.5v21z" />
    <glyph glyph-name="y" unicode="y" horiz-adv-x="856" 
d="M-3 850h387v-21q-41 -6 -59 -16q-39 -22 -39 -68q0 -40 41 -143l168 -429l146 361q54 135 54 191q0 45 -25 71.5t-73 32.5v21h286v-21q-43 -12 -63.5 -25t-39.5 -41q-29 -44 -92 -197l-290 -704q-52 -126 -84 -164q-54 -63 -137 -63q-53 0 -85.5 20.5t-32.5 53.5
q0 26 19 41.5t50 15.5q26 0 60 -14q33 -13 42.5 -16t22.5 -3q62 0 101 93l31 76q20 48 20 74q0 37 -38 129l-208 499l-30 72q-27 64 -42 91t-30 39q-25 19 -60 23v21z" />
    <glyph glyph-name="z" unicode="z" horiz-adv-x="822" 
d="M106 850h668v-21l-558 -802h135q115 0 189 11t116 34q81 45 119 161l20 -3l-21 -230h-747v20l558 803h-219q-80 0 -123.5 -15t-77.5 -53q-32 -37 -61 -117l-19 2z" />
    <glyph glyph-name="braceleft" unicode="{" horiz-adv-x="601" 
d="M78 608v21q54 8 90 30q31 19 44 50t13 87l-1 101l-3 162q0 156 21 221q19 58 57.5 92t97.5 44q47 9 89 9l41 1l15 1v-28q-43 -3 -65.5 -11t-44.5 -27q-27 -23 -40.5 -52t-17.5 -74q-3 -32 -3 -135l1 -185q0 -116 -9.5 -159t-42.5 -79q-39 -42 -106 -54v-8q58 -8 98 -48
q31 -30 44.5 -72.5t13.5 -108.5l1 -104v-211q0 -111 9.5 -158t38.5 -79q22 -25 55 -39t68 -14v-27l-22 1q-108 0 -170 23q-67 26 -99 92.5t-32 179.5l1 108l3 166l3 118q0 80 -33.5 118t-114.5 48z" />
    <glyph glyph-name="bar" unicode="|" horiz-adv-x="1024" 
d="M456 1524h113v-2024h-113v2024z" />
    <glyph glyph-name="braceright" unicode="}" horiz-adv-x="601" 
d="M523 608q-80 -10 -114 -48t-34 -117l3 -119l3 -166l1 -110q0 -112 -32 -178t-99 -92q-62 -23 -169 -23l-23 -1v27q36 0 68.5 14t54.5 39q36 40 44 122q4 31 4 185v141l1 104q0 66 13.5 108.5t44.5 72.5q41 40 98 48v8q-67 12 -106 54q-33 36 -42.5 79t-9.5 161l1 151v43
q0 92 -3 124q-4 45 -17.5 74t-40.5 52q-22 19 -44.5 27t-65.5 11v28l15 -1l41 -1q42 0 89 -9q59 -10 97.5 -44t57.5 -92q21 -65 21 -219l-3 -164l-1 -102q0 -56 13 -86.5t44 -49.5q36 -22 90 -30v-21z" />
    <glyph glyph-name="asciitilde" unicode="~" horiz-adv-x="1365" 
d="M1082 1502l30 -19q-49 -87 -126.5 -142t-152.5 -55l-64 9q48 -5 64 -9l-89 16q-18 6 -37 12l-63 20q-70 23 -105 30.5t-72 7.5q-49 0 -83.5 -20t-83.5 -77l-17 -20l-30 19q41 67 99 122q39 37 87 57t97 20q56 0 184 -44q110 -38 161 -38q112 0 201 111z" />
    <glyph glyph-name="nonbreakingspace" unicode="&#xa0;" 
 />
    <glyph glyph-name="exclamdown" unicode="&#xa1;" horiz-adv-x="525" 
d="M257 498h18l94 -747q12 -91 12 -142q0 -65 -33 -102.5t-91 -37.5q-56 0 -88 36.5t-32 98.5q0 44 12 128zM268 865q50 0 85.5 -35.5t35.5 -85.5t-35.5 -85.5t-85.5 -35.5t-85.5 35.5t-35.5 85.5t35 85.5t86 35.5z" />
    <glyph glyph-name="cent" unicode="&#xa2;" 
d="M581 1042h14q144 0 226 -65q50 -40 50 -88q0 -31 -21 -53t-51 -22q-65 0 -96 95q-18 55 -32 74t-46 30q-20 8 -44 8v-815q28 -5 49 -5q95 0 158 61q32 32 61 104l20 -7q-35 -105 -110 -154q-31 -21 -80 -33.5t-98 -12.5v-171h-44v172q-107 0 -198 49q-96 52 -150 149.5
t-54 218.5q0 122 54 228.5t145 164.5q91 59 203 69v187h44v-184zM537 218v798q-73 -18 -126 -82q-44 -52 -73.5 -145.5t-29.5 -181.5q0 -96 38 -186.5t102 -147.5q38 -34 89 -55z" />
    <glyph glyph-name="sterling" unicode="&#xa3;" 
d="M329 546h-254v34h254v79q0 193 31.5 326.5t101.5 234.5q60 86 142.5 132.5t174.5 46.5q128 0 208 -84q36 -37 55.5 -86.5t19.5 -101.5q0 -101 -65 -167t-166 -66q-88 0 -136.5 56.5t-48.5 159.5l20 1q19 -75 41 -108q40 -58 108 -58q66 0 107.5 57t41.5 148q0 51 -15 95
t-42 72q-53 55 -135 55q-66 0 -119 -38t-90 -111q-35 -71 -55 -184t-20 -241q0 -55 -8 -197l-1 -21h292v-34h-295q-12 -145 -36 -228.5t-77 -169.5q97 -36 182.5 -54.5t153.5 -18.5q150 0 230 72q30 26 49 61t36 95l19 -2q0 -150 -46 -223q-72 -112 -248 -112
q-108 0 -252 48q-106 36 -176 75q-55 -62 -103 -87q-70 -36 -153 -36q-82 0 -128 37q-43 36 -43 85q0 52 49 84.5t128 32.5q47 0 111 -10.5t117 -26.5q19 52 26 95q14 86 14 263v20zM261 113q-102 67 -185 67q-41 0 -69 -27t-28 -67q0 -41 26.5 -67t68.5 -26q49 0 96.5 31
t90.5 89z" />
    <glyph glyph-name="currency" unicode="&#xa4;" 
d="M773 956l136 135l26 -26l-136 -136q104 -122 104 -269q0 -118 -65 -218q-13 -21 -39 -52l136 -135l-26 -26l-135 135q-127 -103 -270 -103q-145 0 -270 103l-136 -135l-26 26l136 136q-104 122 -104 270q0 146 104 269l-136 135l26 26l136 -135q120 104 270 104
q148 0 269 -104zM504 368q53 0 105 19.5t91 54.5q45 41 70.5 98.5t25.5 119.5q0 121 -85.5 207t-206.5 86q-122 0 -207.5 -86t-85.5 -207q0 -62 25.5 -119.5t70.5 -98.5q39 -35 91.5 -54.5t105.5 -19.5z" />
    <glyph glyph-name="yen" unicode="&#xa5;" 
d="M433 553h-339v34h329q-9 43 -24 89l-16 44l-11 34h-278v34h264l-137 351q-25 66 -49 102t-61 64q-27 21 -52 29t-68 11v20h496v-20q-68 -7 -88 -17q-19 -9 -31 -29.5t-12 -43.5q0 -25 13 -59l18 -43q5 -12 15 -40l159 -425l135 366q49 131 49 168q0 31 -12 58t-32 41
q-30 21 -84 24v20h385v-20q-49 -9 -75.5 -20t-51.5 -31q-62 -51 -117 -196l-117 -310h279v-34h-292q-21 -59 -25.5 -84.5t-4.5 -82.5h322v-34h-322v-239q0 -110 9 -155.5t38 -79.5q25 -29 57.5 -42.5t84.5 -16.5v-20h-544v20q52 3 84.5 16.5t57.5 42.5q27 32 37.5 82.5
t10.5 152.5v195l-2 31z" />
    <glyph glyph-name="brokenbar" unicode="&#xa6;" horiz-adv-x="106" 
d="M0 1365h106v-686h-106v686zM0 314h106v-655h-106v655z" />
    <glyph glyph-name="section" unicode="&#xa7;" 
d="M774 244q61 -85 61 -173q0 -68 -37 -138q-49 -91 -137 -142t-197 -51q-79 0 -153 26t-122 70q-37 35 -58.5 81.5t-21.5 92.5q0 44 24.5 70.5t64.5 26.5q37 0 61 -25t24 -62q0 -25 -11 -45l-19 -32q-12 -21 -12 -44q0 -53 69.5 -92.5t163.5 -39.5q107 0 169.5 57t62.5 155
q0 78 -48 145t-162 148l-223 159q-87 63 -125.5 120.5t-38.5 126.5q0 80 55 143q23 26 82 75q-61 90 -61 186q0 132 96 216.5t245 84.5q76 0 146.5 -23.5t114.5 -64.5q59 -53 59 -117q0 -36 -24 -61t-59 -25q-33 0 -55 21.5t-22 54.5q0 16 4 30l10 32q2 10 2 24
q0 47 -47 74.5t-129 27.5q-103 0 -164 -51.5t-61 -137.5q0 -62 36.5 -123.5t104.5 -113.5l67 -51l202 -152l58 -42q61 -46 94.5 -107t33.5 -126q0 -60 -21.5 -96.5t-101.5 -111.5zM757 268q20 46 20 93q0 114 -96 186l-46 33l-214 161l-51 38q-69 51 -112 100
q-18 -36 -25 -60t-7 -53q0 -55 26.5 -94t97.5 -92l222 -162l54 -39q60 -44 131 -111z" />
    <glyph glyph-name="dieresis" unicode="&#xa8;" horiz-adv-x="1024" 
d="M342 1240q37 0 63 -26t26 -63q0 -36 -26 -62t-63 -26t-63 25.5t-26 62.5t26 63t63 26zM683 1240q36 0 62 -26t26 -62q0 -37 -26 -62.5t-62 -25.5q-37 0 -62.5 25.5t-25.5 62.5q0 36 25.5 62t62.5 26z" />
    <glyph glyph-name="copyright" unicode="&#xa9;" horiz-adv-x="1638" 
d="M1140 1075l8 -261h-22q-7 19 -11 28q-27 72 -46 103.5t-53 62.5q-61 55 -143 55q-64 0 -112 -27q-42 -23 -78.5 -68t-59.5 -102q-33 -81 -33 -184q0 -168 80 -265.5t219 -97.5q65 0 117.5 22t81.5 61q34 47 49 129l22 -3q-11 -95 -52 -149q-78 -105 -259 -105
q-187 0 -298 107.5t-111 287.5q0 103 39 191.5t109 141.5q54 41 129 65t149 24q72 0 152 -26l48 -15q13 -5 23 -5q11 0 17 6t14 24h21zM820 -34q-153 0 -296 63t-242 173q-89 99 -137.5 224t-48.5 257t48 256.5t138 222.5q103 114 243.5 175.5t294.5 61.5q153 0 293.5 -61.5
t243.5 -175.5q90 -98 138 -222.5t48 -256.5t-48 -257t-137 -224q-100 -110 -243 -173t-295 -63zM820 41q115 0 228 43.5t197 120.5q99 90 154.5 216t55.5 262t-55 260.5t-155 215.5q-88 80 -198 122.5t-227 42.5q-118 0 -228 -42.5t-197 -122.5q-101 -91 -155.5 -215.5
t-54.5 -260.5t55 -262t154 -216q84 -77 197 -120.5t229 -43.5z" />
    <glyph glyph-name="ordfeminine" unicode="&#xaa;" horiz-adv-x="752" 
d="M635 927l17 -9q-23 -68 -106 -68q-40 0 -66 15t-47 50l-10 -8q-39 -32 -70 -44.5t-75 -12.5q-69 0 -109.5 32.5t-40.5 87.5q0 51 34 85q18 19 42.5 30.5t70.5 22.5q98 24 125.5 46t27.5 77q0 68 -26 99t-68 31q-51 0 -71 -45l-16 -34q-13 -30 -47 -30q-23 0 -38.5 14.5
t-15.5 35.5q0 34 51 57t126 23q39 0 80.5 -9.5t69.5 -24.5q34 -19 45.5 -43t11.5 -78v-219q0 -68 10.5 -91.5t40.5 -23.5q19 0 29 6.5t25 27.5zM429 1147q-29 -23 -66 -42q-44 -22 -61.5 -34t-31.5 -28q-28 -34 -28 -78q0 -37 21.5 -61.5t54.5 -24.5q28 0 53.5 17.5
t39.5 46.5q18 39 18 114v90zM677 734v-55h-602v55h602z" />
    <glyph glyph-name="guillemotleft" unicode="&#xab;" horiz-adv-x="812" 
d="M268 436l123 -256q9 -20 9 -28l-15 -13q-11 0 -29 18l-253 250q-26 26 -26 33q0 8 24 29l262 235l12 11q7 6 15 6q5 0 10 -5t5 -11q0 -11 -9 -27zM596 436l122 -256q10 -20 10 -28l-15 -13q-11 0 -29 18l-253 250q-26 26 -26 33q0 8 23 29l263 235l12 11q7 6 14 6
q6 0 10.5 -5t4.5 -11q0 -11 -8 -27z" />
    <glyph glyph-name="logicalnot" unicode="&#xac;" horiz-adv-x="1024" 
d="M754 0v460h-682v86h879v-546h-197z" />
    <glyph glyph-name="registered" unicode="&#xae;" horiz-adv-x="1638" 
d="M718 670v-195q0 -56 6.5 -83t23.5 -45q29 -28 93 -31v-22h-383v22q64 3 93 31q17 18 23.5 45t6.5 83v415q0 57 -6.5 84t-23.5 44q-32 31 -93 31v23h287q105 0 151 -5t85 -20q60 -23 92.5 -69t32.5 -107q0 -71 -45 -120t-127 -67q33 -14 49.5 -34t48.5 -84
q91 -181 123 -218q14 -18 27.5 -24t39.5 -8v-22h-202q-16 33 -20 42l-41 89q-84 183 -141 225q-28 20 -76 20h-24zM718 692h18q72 0 102.5 7.5t56.5 31.5q60 55 60 136q0 44 -17 82t-48 62q-24 19 -57.5 26.5t-95.5 7.5h-19v-353zM820 -34q-153 0 -296 63t-242 173
q-89 99 -137.5 224t-48.5 257t48 256.5t138 222.5q103 114 243.5 175.5t294.5 61.5q153 0 293.5 -61.5t243.5 -175.5q90 -98 138 -222.5t48 -256.5t-48 -257t-137 -224q-100 -110 -243 -173t-295 -63zM820 41q115 0 228 43.5t197 120.5q99 90 154.5 216t55.5 262t-55 260.5
t-155 215.5q-88 80 -198 122.5t-227 42.5q-118 0 -228 -42.5t-197 -122.5q-101 -91 -155.5 -215.5t-54.5 -260.5t55 -262t154 -216q84 -77 197 -120.5t229 -43.5z" />
    <glyph glyph-name="degree" unicode="&#xb0;" horiz-adv-x="560" 
d="M485 1181q0 -86 -59.5 -146t-144.5 -60q-37 0 -74.5 14.5t-65.5 39.5q-31 28 -48.5 68t-17.5 84q0 101 80 160q57 42 127 42q83 0 143 -59.5t60 -142.5zM431 1178q0 65 -44 109t-109 44q-61 0 -105.5 -44t-44.5 -106q0 -63 45 -107.5t108 -44.5q62 0 106 44t44 105z" />
    <glyph glyph-name="plusminus" unicode="&#xb1;" 
d="M472 638h-406v62h406v385h62v-385h406v-62h-406v-385h-62v385zM66 154h874v-62h-874v62z" />
    <glyph glyph-name="twosuperior" unicode="&#xb2;" horiz-adv-x="653" 
d="M543 546h-485v18q77 66 152.5 146t129.5 151q78 102 110.5 173t32.5 138q0 74 -49 129t-116 55q-71 0 -116.5 -48t-45.5 -123q0 -69 48 -114q23 -21 50 -33t46 -9q5 1 18 7l6 -17q-48 -24 -83 -24q-63 0 -106.5 49t-43.5 119q0 92 69.5 152.5t175.5 60.5q126 0 197 -74
q29 -31 46 -73t17 -86q0 -93 -66 -187q-31 -46 -74.5 -88.5t-124.5 -107.5q-89 -72 -123 -100l-13 -12h211q57 0 82.5 7t45.5 28q23 24 38 72l21 -4z" />
    <glyph glyph-name="threesuperior" unicode="&#xb3;" horiz-adv-x="653" 
d="M417 986q86 -23 130 -75.5t44 -130.5q0 -43 -18.5 -86t-50.5 -76q-39 -39 -97.5 -61t-125.5 -22q-56 0 -105 15.5t-80 42.5q-24 21 -37.5 50.5t-13.5 59.5q0 53 37 89t92 36l4 -17q-27 -23 -37.5 -46t-10.5 -56q0 -64 46.5 -109t112.5 -45q86 0 134 61q51 64 51 159
q0 44 -17.5 88t-44.5 69q-32 30 -73 30q-15 0 -43 -19q-33 -22 -61 -22q-18 0 -31 11.5t-13 28.5q0 19 16 31.5t40 12.5q15 0 24 -2l24 -7q10 -3 24 -3q40 0 78 36q25 24 39 58.5t14 71.5q0 85 -43.5 141t-108.5 56q-51 0 -82.5 -30.5t-31.5 -80.5q0 -34 17.5 -58.5
t46.5 -31.5l2 -17q-25 -9 -47 -9q-47 0 -75.5 26.5t-28.5 69.5q0 64 60.5 107.5t147.5 43.5q48 0 95 -16t80 -42q67 -56 67 -147q0 -61 -37.5 -107.5t-112.5 -77.5z" />
    <glyph glyph-name="acute" unicode="&#xb4;" horiz-adv-x="1024" 
d="M396 1000l183 273h186l-320 -273h-49z" />
    <glyph glyph-name="mu" unicode="&#xb5;" horiz-adv-x="913" 
d="M936 106v-33l-170 -93q-4 -2 -9 -2q-19 0 -44 16q-22 15 -34 41t-20 76q-2 12 -7 37q-88 -85 -130 -115q-88 -63 -181 -63q-109 0 -171 71q-32 37 -56 109v-52q0 -65 2.5 -96t12.5 -97l14 -93q10 -68 10 -100q0 -43 -22 -71.5t-55 -28.5q-35 0 -58 27t-23 68q0 39 15 123
q18 107 38 317q19 195 19 421v369h150v-587q0 -104 13.5 -156t47.5 -85q47 -43 120 -43t143 48q47 32 103 113v710h149v-696q0 -88 14 -119q17 -38 67 -38q27 0 62 22z" />
    <glyph glyph-name="paragraph" unicode="&#xb6;" 
d="M966 1365v-23q-90 -9 -133 -58q-28 -32 -39 -82.5t-11 -150.5v-1016q0 -62 6.5 -103t21.5 -68q23 -40 55.5 -57.5t99.5 -25.5v-23h-704v23q90 10 133 58q29 32 39.5 81.5t10.5 151.5v553h-43q-111 0 -190 55q-68 48 -106.5 131t-38.5 181q0 92 35 174.5t95 130.5
q85 68 236 68h533zM537 -208h155v1539h-155v-1539z" />
    <glyph glyph-name="cedilla" unicode="&#xb8;" horiz-adv-x="1024" 
d="M538 0l-41 -120q64 -10 98 -31q61 -36 61 -97q0 -60 -52 -99t-132 -39q-79 0 -168 41l11 18q68 -26 114 -26q51 0 84.5 29.5t33.5 74.5q0 72 -112 106l51 143h52z" />
    <glyph glyph-name="onesuperior" unicode="&#xb9;" horiz-adv-x="650" 
d="M358 1366h19v-657q0 -88 33 -114q29 -24 95 -29v-20h-360v20q44 3 64 9.5t35 22.5q16 16 21.5 39t5.5 69v562q-28 -3 -40 -3q-54 0 -83 10v18q9 -7 12 -8q15 -5 55.5 5t70.5 25q24 13 72 51z" />
    <glyph glyph-name="ordmasculine" unicode="&#xba;" horiz-adv-x="752" 
d="M677 734v-55h-602v55h602zM84 1115q0 107 87.5 187t204.5 80q118 0 205 -80t87 -188q0 -96 -71 -172q-87 -92 -221 -92q-133 0 -221 92q-71 75 -71 173zM204 1121q0 -105 50.5 -177.5t124.5 -72.5q70 0 117 65q23 32 37.5 82t14.5 97t-15.5 96.5t-41.5 83.5
q-49 66 -120 66q-69 0 -118 -70t-49 -170z" />
    <glyph glyph-name="guillemotright" unicode="&#xbb;" horiz-adv-x="812" 
d="M216 423l-122 257q-10 20 -10 28l15 13q11 0 29 -18l253 -250q26 -26 26 -33q0 -8 -23 -29l-263 -235l-12 -11q-7 -6 -14 -6q-6 0 -10.5 5t-4.5 11q0 11 8 27zM544 423l-123 257q-9 20 -9 28l15 13q11 0 29 -18l253 -250q26 -26 26 -33q0 -8 -24 -29l-262 -235l-12 -11
q-7 -6 -15 -6q-5 0 -9.5 5t-4.5 11q0 11 8 27z" />
    <glyph glyph-name="onequarter" unicode="&#xbc;" horiz-adv-x="1443" 
d="M358 1366h19v-657q0 -88 33 -114q29 -24 95 -29v-20h-360v20q44 3 64 9.5t35 22.5q16 16 21.5 39t5.5 69v562q-28 -3 -40 -3q-54 0 -83 10v18q9 -7 12 -8q15 -5 55.5 5t70.5 25q24 13 72 51zM1073 1365h60l-695 -1365h-60zM1157 193h-308v19l382 609h32v-597q37 0 53 4.5
t29 19.5q17 20 20 62v18h21v-236h-21q-4 61 -19 79q-12 14 -27.5 18t-55.5 4v-57q0 -50 15 -74q11 -19 25.5 -27t47.5 -13q4 -1 11 -2v-20h-304v20q38 5 54.5 10.5t26.5 16.5q18 24 18 93v53zM1157 224v417l-267 -417h267z" />
    <glyph glyph-name="onehalf" unicode="&#xbd;" horiz-adv-x="1443" 
d="M358 1366h19v-657q0 -88 33 -114q29 -24 95 -29v-20h-360v20q44 3 64 9.5t35 22.5q16 16 21.5 39t5.5 69v562q-28 -3 -40 -3q-54 0 -83 10v18q17 -7 25 -8q16 -2 52 8t61 23q25 14 72 50zM1039 1365h60l-695 -1365h-60zM1333 0h-486v18q77 66 153 146t130 151
q77 102 109.5 173t32.5 138q0 74 -49 129t-116 55q-70 0 -115.5 -48t-45.5 -123q0 -70 48 -114q22 -21 49.5 -33t46.5 -9q4 1 18 7l6 -17q-48 -24 -83 -24q-63 0 -106.5 49t-43.5 119q0 92 69.5 152.5t175.5 60.5q126 0 196 -74q29 -30 46 -72.5t17 -86.5q0 -93 -66 -187
q-31 -46 -74.5 -88.5t-124.5 -107.5q-88 -72 -122 -100l-14 -12h211q57 0 83 7t46 28q23 25 38 72l21 -4z" />
    <glyph glyph-name="threequarters" unicode="&#xbe;" horiz-adv-x="1443" 
d="M417 986q86 -23 130 -75.5t44 -130.5q0 -43 -18.5 -86t-50.5 -76q-39 -39 -97.5 -61t-125.5 -22q-56 0 -105 15.5t-80 42.5q-24 21 -37.5 50.5t-13.5 59.5q0 53 37 89t92 36l4 -17q-27 -23 -37.5 -46t-10.5 -56q0 -64 46.5 -109t112.5 -45q86 0 134 61q51 64 51 159
q0 44 -17.5 88t-44.5 69q-32 30 -73 30q-15 0 -43 -19q-33 -22 -61 -22q-18 0 -31 11.5t-13 28.5q0 19 16 31.5t40 12.5q15 0 24 -2l24 -7q10 -3 24 -3q40 0 78 36q25 24 39 58.5t14 71.5q0 85 -43.5 141t-108.5 56q-51 0 -82.5 -30.5t-31.5 -80.5q0 -34 17.5 -58.5
t46.5 -31.5l2 -17q-25 -9 -47 -9q-47 0 -75.5 26.5t-28.5 69.5q0 64 60.5 107.5t147.5 43.5q48 0 95 -16t80 -42q67 -56 67 -147q0 -61 -37.5 -107.5t-112.5 -77.5zM1074 1365h60l-696 -1365h-59zM1158 193h-308v19l382 609h32v-597q37 0 53 4.5t29 19.5q17 20 20 62v18h21
v-236h-21q-4 61 -19 79q-12 14 -27.5 18t-55.5 4v-57q0 -50 15 -74q11 -19 25.5 -27t47.5 -13q4 -1 11 -2v-20h-304v20q38 5 54.5 10.5t26.5 16.5q18 24 18 93v53zM1158 224v417l-267 -417h267z" />
    <glyph glyph-name="questiondown" unicode="&#xbf;" horiz-adv-x="945" 
d="M718 530h33v-503h-33q-9 81 -34 127q-26 45 -67.5 70.5t-88.5 25.5q-93 0 -146 -87.5t-53 -239.5q0 -117 31.5 -213t87.5 -154q31 -31 69 -48.5t74 -17.5q50 0 85 30q34 28 44 107q4 28 10 43t18 25q21 17 47 17q32 0 51.5 -21.5t19.5 -57.5q0 -56 -50 -98
q-38 -30 -93.5 -48t-114.5 -18q-157 0 -280 110q-74 66 -115 157t-41 187q0 86 33 156.5t94 118.5q45 34 103 54t111 20q56 0 108.5 -18.5t96.5 -53.5v330zM730 865q50 0 85.5 -35.5t35.5 -85.5t-35.5 -85.5t-85.5 -35.5q-51 0 -86.5 35.5t-35.5 85.5t35.5 85.5t86.5 35.5z
" />
    <glyph glyph-name="Agrave" unicode="&#xc0;" horiz-adv-x="1420" 
d="M1441 0h-657v23q89 8 124 30q62 39 62 108q0 41 -28 110l-17 42l-96 236h-440l-52 -138l-25 -62q-45 -110 -45 -173q0 -37 16.5 -69t44.5 -52q39 -27 100 -32v-23h-448v23q53 3 93 26t78 74q32 41 62.5 105.5t80.5 193.5l366 943h57l435 -1051q49 -119 78 -170t63 -77
q24 -18 55 -27.5t93 -16.5v-23zM813 590l-210 518l-198 -518h408zM730 1526h-49l-347 246h199z" />
    <glyph glyph-name="Aacute" unicode="&#xc1;" horiz-adv-x="1420" 
d="M1441 0h-657v23q89 8 124 30q62 39 62 108q0 41 -28 110l-17 42l-96 236h-440l-52 -138l-25 -62q-45 -110 -45 -173q0 -37 16.5 -69t44.5 -52q39 -27 100 -32v-23h-448v23q53 3 93 26t78 74q32 41 62.5 105.5t80.5 193.5l366 943h57l435 -1051q49 -119 78 -170t63 -77
q24 -18 55 -27.5t93 -16.5v-23zM813 590l-210 518l-198 -518h408zM662 1526l197 246h200l-348 -246h-49z" />
    <glyph glyph-name="Acircumflex" unicode="&#xc2;" horiz-adv-x="1420" 
d="M1441 0h-657v23q89 8 124 30q62 39 62 108q0 41 -28 110l-17 42l-96 236h-440l-52 -138l-25 -62q-45 -110 -45 -173q0 -37 16.5 -69t44.5 -52q39 -27 100 -32v-23h-448v23q53 3 93 26t78 74q32 41 62.5 105.5t80.5 193.5l366 943h57l435 -1051q49 -119 78 -170t63 -77
q24 -18 55 -27.5t93 -16.5v-23zM813 590l-210 518l-198 -518h408zM690 1659l-238 -145h-55l271 254h43l271 -254h-54z" />
    <glyph glyph-name="Atilde" unicode="&#xc3;" horiz-adv-x="1420" 
d="M1441 0h-657v23q89 8 124 30q62 39 62 108q0 41 -28 110l-17 42l-96 236h-440l-52 -138l-25 -62q-45 -110 -45 -173q0 -37 16.5 -69t44.5 -52q39 -27 100 -32v-23h-448v23q53 3 93 26t78 74q32 41 62.5 105.5t80.5 193.5l366 943h57l435 -1051q49 -119 78 -170t63 -77
q24 -18 55 -27.5t93 -16.5v-23zM813 590l-210 518l-198 -518h408zM901 1722h23q3 -22 3 -32q0 -62 -35.5 -101.5t-92.5 -39.5q-40 0 -75 12.5t-112 53.5q-40 22 -67 22q-65 0 -73 -66h-23q-1 14 -1 22q0 68 33 108t90 40q54 0 116 -32l45 -24q60 -31 99 -31q31 0 46 14.5
t24 53.5z" />
    <glyph glyph-name="Adieresis" unicode="&#xc4;" horiz-adv-x="1420" 
d="M1441 0h-657v23q89 8 124 30q62 39 62 108q0 41 -28 110l-17 42l-96 236h-440l-52 -138l-25 -62q-45 -110 -45 -173q0 -37 16.5 -69t44.5 -52q39 -27 100 -32v-23h-448v23q53 3 93 26t78 74q32 41 62.5 105.5t80.5 193.5l366 943h57l435 -1051q49 -119 78 -170t63 -77
q24 -18 55 -27.5t93 -16.5v-23zM813 590l-210 518l-198 -518h408zM496 1748q41 0 69.5 -28.5t28.5 -69.5q0 -40 -28.5 -69t-69.5 -29q-40 0 -69 29t-29 69q0 41 29 69.5t69 28.5zM871 1747q40 0 68.5 -28t28.5 -68t-28.5 -68.5t-68.5 -28.5t-68.5 28.5t-28.5 68.5t28.5 68
t68.5 28z" />
    <glyph glyph-name="Aring" unicode="&#xc5;" horiz-adv-x="1420" 
d="M1441 0h-657v23q89 8 124 30q62 39 62 108q0 41 -28 110l-17 42l-96 236h-440l-52 -138l-25 -62q-45 -110 -45 -173q0 -37 16.5 -69t44.5 -52q39 -27 100 -32v-23h-448v23q53 3 93 26t78 74q32 41 62.5 105.5t80.5 193.5l366 943h57l435 -1051q49 -119 78 -170t63 -77
q24 -18 55 -27.5t93 -16.5v-23zM813 590l-210 518l-198 -518h408zM683 1805q68 0 116 -48t48 -115q0 -68 -48 -116t-116 -48t-116 48t-48 116q0 67 48 115t116 48zM683 1754q-47 0 -79.5 -33t-32.5 -79q0 -47 32.5 -79.5t79.5 -32.5q46 0 79 32.5t33 79.5q0 46 -33 79
t-79 33z" />
    <glyph glyph-name="AE" unicode="&#xc6;" horiz-adv-x="2052" 
d="M825 23q57 3 93 16t63 42q31 32 42.5 80.5t11.5 147.5v233h-514l-164 -234q-85 -121 -85 -172q0 -52 53 -83q40 -23 114 -30v-23h-446v23q85 27 138 74.5t154 191.5l642 909q42 59 42 82q0 33 -42 49q-26 10 -87 12l-15 1v23h1075l17 -330l-23 -2q-17 91 -46.5 145
t-83.5 93q-47 34 -112.5 48.5t-168.5 14.5h-229v-600h60q91 0 137 12t75 43q28 29 41.5 69t22.5 117l23 -1l-8 -537h-23q-17 143 -74 204q-29 32 -76.5 47t-120.5 15h-57v-229q0 -53 3 -121q4 -71 10.5 -111.5t19.5 -71.5q30 -70 101.5 -104.5t188.5 -34.5q118 0 199 30.5
t132 94.5q36 43 58.5 98t41.5 145l23 -3l-13 -396h-1193v23zM1035 583v688l-488 -688h488z" />
    <glyph glyph-name="Ccedilla" unicode="&#xc7;" horiz-adv-x="1371" 
d="M759 -34l-37 -103q92 -16 136 -52.5t44 -95.5q0 -65 -59 -110t-145 -45q-91 0 -185 53l14 23q78 -29 134 -29q47 0 79.5 32t32.5 78q0 38 -22 62.5t-78 49.5q-7 3 -20 9l47 132q-199 22 -337 117q-129 89 -198 237t-69 333q0 183 66 337.5t184 248.5q91 72 217.5 114.5
t253.5 42.5q121 0 256 -46l82 -27q24 -9 42 -9q25 0 41 21q7 10 17 33h24l12 -447h-23q-11 29 -17 44q-35 96 -57 143q-39 84 -113 154q-56 53 -116 77t-135 24q-113 0 -196 -49q-73 -43 -136 -123.5t-103 -183.5q-57 -145 -57 -330q0 -157 39 -283t114 -211
q138 -158 366 -158q114 0 205 39.5t141 111.5q58 83 84 224l23 -4q-19 -158 -86 -251q-64 -88 -175.5 -135.5t-255.5 -47.5h-34z" />
    <glyph glyph-name="Egrave" unicode="&#xc8;" horiz-adv-x="1276" 
d="M1124 1365l17 -330l-23 -1q-13 84 -43 139t-87 97q-47 35 -111 49.5t-170 14.5h-229v-600h60q91 0 137 12t75 43q28 29 41.5 68.5t22.5 116.5l23 -1l-4 -536h-23q-9 77 -26.5 124t-48.5 80q-30 32 -78 47t-122 15h-57v-229q0 -137 7 -199.5t27 -104.5
q34 -72 103.5 -105.5t183.5 -33.5q120 0 201 30.5t132 94.5q36 43 58.5 98t41.5 145l23 -1l-13 -398h-1193v23q57 3 92.5 16t63.5 42q31 32 42.5 81.5t11.5 151.5v737q0 102 -11.5 151.5t-42.5 81.5q-27 29 -62.5 42t-93.5 16v23h1075zM728 1526h-49l-348 246h200z" />
    <glyph glyph-name="Eacute" unicode="&#xc9;" horiz-adv-x="1276" 
d="M1124 1365l17 -330l-23 -1q-13 84 -43 139t-87 97q-47 35 -111 49.5t-170 14.5h-229v-600h60q91 0 137 12t75 43q28 29 41.5 68.5t22.5 116.5l23 -1l-4 -536h-23q-9 77 -26.5 124t-48.5 80q-30 32 -78 47t-122 15h-57v-229q0 -137 7 -199.5t27 -104.5
q34 -72 103.5 -105.5t183.5 -33.5q120 0 201 30.5t132 94.5q36 43 58.5 98t41.5 145l23 -1l-13 -398h-1193v23q57 3 92.5 16t63.5 42q31 32 42.5 81.5t11.5 151.5v737q0 102 -11.5 151.5t-42.5 81.5q-27 29 -62.5 42t-93.5 16v23h1075zM590 1526l196 246h200l-348 -246h-48z
" />
    <glyph glyph-name="Ecircumflex" unicode="&#xca;" horiz-adv-x="1276" 
d="M1124 1365l17 -330l-23 -1q-13 84 -43 139t-87 97q-47 35 -111 49.5t-170 14.5h-229v-600h60q91 0 137 12t75 43q28 29 41.5 68.5t22.5 116.5l23 -1l-4 -536h-23q-9 77 -26.5 124t-48.5 80q-30 32 -78 47t-122 15h-57v-229q0 -137 7 -199.5t27 -104.5
q34 -72 103.5 -105.5t183.5 -33.5q120 0 201 30.5t132 94.5q36 43 58.5 98t41.5 145l23 -1l-13 -398h-1193v23q57 3 92.5 16t63.5 42q31 32 42.5 81.5t11.5 151.5v737q0 102 -11.5 151.5t-42.5 81.5q-27 29 -62.5 42t-93.5 16v23h1075zM639 1659l-238 -145h-55l271 254h43
l271 -254h-54z" />
    <glyph glyph-name="Edieresis" unicode="&#xcb;" horiz-adv-x="1276" 
d="M1124 1365l17 -330l-23 -1q-13 84 -43 139t-87 97q-47 35 -111 49.5t-170 14.5h-229v-600h60q91 0 137 12t75 43q28 29 41.5 68.5t22.5 116.5l23 -1l-4 -536h-23q-9 77 -26.5 124t-48.5 80q-30 32 -78 47t-122 15h-57v-229q0 -137 7 -199.5t27 -104.5
q34 -72 103.5 -105.5t183.5 -33.5q120 0 201 30.5t132 94.5q36 43 58.5 98t41.5 145l23 -1l-13 -398h-1193v23q57 3 92.5 16t63.5 42q31 32 42.5 81.5t11.5 151.5v737q0 102 -11.5 151.5t-42.5 81.5q-27 29 -62.5 42t-93.5 16v23h1075zM451 1748q41 0 69.5 -28.5t28.5 -69.5
q0 -40 -28.5 -69t-69.5 -29q-40 0 -69 29t-29 69q0 41 28.5 69.5t69.5 28.5zM826 1747q40 0 68.5 -28t28.5 -68t-28.5 -68.5t-68.5 -28.5t-68.5 28.5t-28.5 68.5t28.5 68t68.5 28z" />
    <glyph glyph-name="Igrave" unicode="&#xcc;" horiz-adv-x="737" 
d="M688 1365v-23q-57 -3 -92.5 -16t-63.5 -42q-39 -40 -48 -111q-6 -53 -6 -122v-737q0 -83 8 -131t26 -77q26 -40 67 -59.5t109 -23.5v-23h-639v23q58 3 93.5 16.5t62.5 41.5q32 32 43 81t11 152v737q0 103 -11 152t-43 81q-27 29 -63 42t-93 16v23h639zM430 1526h-48
l-348 246h200z" />
    <glyph glyph-name="Iacute" unicode="&#xcd;" horiz-adv-x="737" 
d="M688 1365v-23q-57 -3 -92.5 -16t-63.5 -42q-39 -40 -48 -111q-6 -53 -6 -122v-737q0 -83 8 -131t26 -77q26 -40 67 -59.5t109 -23.5v-23h-639v23q58 3 93.5 16.5t62.5 41.5q32 32 43 81t11 152v737q0 103 -11 152t-43 81q-27 29 -63 42t-93 16v23h639zM293 1526l197 246
h199l-347 -246h-49z" />
    <glyph glyph-name="Icircumflex" unicode="&#xce;" horiz-adv-x="737" 
d="M688 1365v-23q-57 -3 -92.5 -16t-63.5 -42q-39 -40 -48 -111q-6 -53 -6 -122v-737q0 -83 8 -131t26 -77q26 -40 67 -59.5t109 -23.5v-23h-639v23q58 3 93.5 16.5t62.5 41.5q32 32 43 81t11 152v737q0 103 -11 152t-43 81q-27 29 -63 42t-93 16v23h639zM369 1659
l-238 -145h-55l271 254h43l271 -254h-55z" />
    <glyph glyph-name="Idieresis" unicode="&#xcf;" horiz-adv-x="737" 
d="M688 1365v-23q-57 -3 -92.5 -16t-63.5 -42q-39 -40 -48 -111q-6 -53 -6 -122v-737q0 -83 8 -131t26 -77q26 -40 67 -59.5t109 -23.5v-23h-639v23q58 3 93.5 16.5t62.5 41.5q32 32 43 81t11 152v737q0 103 -11 152t-43 81q-27 29 -63 42t-93 16v23h639zM244 1748
q41 0 69.5 -28.5t28.5 -69.5q0 -40 -28.5 -69t-69.5 -29q-40 0 -68.5 29t-28.5 69q0 41 28.5 69.5t68.5 28.5zM494 1747q40 0 68 -28t28 -68t-28 -68.5t-68 -28.5t-68.5 28.5t-28.5 68.5t28.5 68t68.5 28z" />
    <glyph glyph-name="Eth" unicode="&#xd0;" horiz-adv-x="1580" 
d="M257 662h-183v68h183v321q0 109 -14 160.5t-52 83.5q-48 41 -142 47v23h547q183 0 234 -4q211 -17 358 -120q140 -100 218 -260t78 -349q0 -138 -44.5 -260.5t-123.5 -203.5q-111 -114 -277 -145q-124 -23 -254 -23h-165h-571v23q57 4 91.5 16.5t62.5 41.5
q31 32 42.5 81.5t11.5 151.5v348zM475 662v-322q0 -98 11.5 -149t41.5 -87q64 -78 207 -78q125 0 213 41t158 131q68 88 103.5 201.5t35.5 241.5q0 142 -43 270t-124 224q-112 133 -267 176q-84 23 -215 23h-121v-604h295v-68h-295z" />
    <glyph glyph-name="Ntilde" unicode="&#xd1;" horiz-adv-x="1547" 
d="M300 1184v-870q0 -103 11.5 -152t42.5 -81q28 -29 63.5 -42t92.5 -16v-23h-461v23q57 3 92.5 16t63.5 42q31 32 42.5 81.5t11.5 151.5v738q0 101 -11.5 150.5t-42.5 81.5q-27 29 -62.5 42t-93.5 16v23h385l812 -1036v722q0 103 -11.5 152t-42.5 81q-28 29 -63.5 42
t-92.5 16v23h461v-23q-100 0 -156 -58q-31 -32 -42.5 -81.5t-11.5 -150.5v-1052h-45zM978 1722h23q3 -22 3 -32q0 -62 -36 -101.5t-92 -39.5q-41 0 -76 12.5t-111 53.5q-41 22 -67 22q-65 0 -73 -66h-23q-1 14 -1 22q0 68 33 108t89 40q54 0 116 -32l46 -24q59 -31 99 -31
q30 0 45.5 14.5t24.5 53.5z" />
    <glyph glyph-name="Ograve" unicode="&#xd2;" horiz-adv-x="1661" 
d="M96 673q0 168 72 311.5t210 250.5q103 79 222 121.5t240 42.5q154 0 298 -67.5t252 -190.5q176 -200 176 -455q0 -128 -46 -247t-134 -217q-108 -122 -255.5 -189t-308.5 -67q-159 0 -304 65t-250 184q-83 93 -127.5 211.5t-44.5 246.5zM338 658q0 -290 158 -489
q71 -89 150.5 -129.5t183.5 -40.5q105 0 184.5 40t151.5 130q158 200 158 493q0 161 -43.5 304.5t-122.5 243.5q-64 82 -142.5 119.5t-185.5 37.5q-106 0 -183.5 -37t-143.5 -120q-79 -99 -122 -243t-43 -309zM893 1526h-49l-348 246h200z" />
    <glyph glyph-name="Oacute" unicode="&#xd3;" horiz-adv-x="1661" 
d="M96 673q0 168 72 311.5t210 250.5q103 79 222 121.5t240 42.5q154 0 298 -67.5t252 -190.5q176 -200 176 -455q0 -128 -46 -247t-134 -217q-108 -122 -255.5 -189t-308.5 -67q-159 0 -304 65t-250 184q-83 93 -127.5 211.5t-44.5 246.5zM338 658q0 -290 158 -489
q71 -89 150.5 -129.5t183.5 -40.5q105 0 184.5 40t151.5 130q158 200 158 493q0 161 -43.5 304.5t-122.5 243.5q-64 82 -142.5 119.5t-185.5 37.5q-106 0 -183.5 -37t-143.5 -120q-79 -99 -122 -243t-43 -309zM755 1526l196 246h200l-348 -246h-48z" />
    <glyph glyph-name="Ocircumflex" unicode="&#xd4;" horiz-adv-x="1661" 
d="M96 673q0 168 72 311.5t210 250.5q103 79 222 121.5t240 42.5q154 0 298 -67.5t252 -190.5q176 -200 176 -455q0 -128 -46 -247t-134 -217q-108 -122 -255.5 -189t-308.5 -67q-159 0 -304 65t-250 184q-83 93 -127.5 211.5t-44.5 246.5zM338 658q0 -290 158 -489
q71 -89 150.5 -129.5t183.5 -40.5q105 0 184.5 40t151.5 130q158 200 158 493q0 161 -43.5 304.5t-122.5 243.5q-64 82 -142.5 119.5t-185.5 37.5q-106 0 -183.5 -37t-143.5 -120q-79 -99 -122 -243t-43 -309zM830 1659l-238 -145h-54l270 254h44l270 -254h-54z" />
    <glyph glyph-name="Otilde" unicode="&#xd5;" horiz-adv-x="1661" 
d="M96 673q0 168 72 311.5t210 250.5q103 79 222 121.5t240 42.5q154 0 298 -67.5t252 -190.5q176 -200 176 -455q0 -128 -46 -247t-134 -217q-108 -122 -255.5 -189t-308.5 -67q-159 0 -304 65t-250 184q-83 93 -127.5 211.5t-44.5 246.5zM338 658q0 -290 158 -489
q71 -89 150.5 -129.5t183.5 -40.5q105 0 184.5 40t151.5 130q158 200 158 493q0 161 -43.5 304.5t-122.5 243.5q-64 82 -142.5 119.5t-185.5 37.5q-106 0 -183.5 -37t-143.5 -120q-79 -99 -122 -243t-43 -309zM1035 1722h23q2 -22 2 -32q0 -62 -35.5 -101.5t-91.5 -39.5
q-41 0 -76 12.5t-111 53.5q-41 22 -67 22q-65 0 -73 -66h-24v22q0 68 33 108t89 40q54 0 116 -32l46 -24q59 -31 99 -31q30 0 45.5 14.5t24.5 53.5z" />
    <glyph glyph-name="Odieresis" unicode="&#xd6;" horiz-adv-x="1661" 
d="M96 673q0 168 72 311.5t210 250.5q103 79 222 121.5t240 42.5q154 0 298 -67.5t252 -190.5q176 -200 176 -455q0 -128 -46 -247t-134 -217q-108 -122 -255.5 -189t-308.5 -67q-159 0 -304 65t-250 184q-83 93 -127.5 211.5t-44.5 246.5zM338 658q0 -290 158 -489
q71 -89 150.5 -129.5t183.5 -40.5q105 0 184.5 40t151.5 130q158 200 158 493q0 161 -43.5 304.5t-122.5 243.5q-64 82 -142.5 119.5t-185.5 37.5q-106 0 -183.5 -37t-143.5 -120q-79 -99 -122 -243t-43 -309zM644 1748q41 0 69.5 -28.5t28.5 -69.5q0 -40 -28.5 -69
t-69.5 -29q-40 0 -69 29t-29 69q0 41 29 69.5t69 28.5zM1019 1747q40 0 68.5 -28t28.5 -68t-28.5 -68.5t-68.5 -28.5t-68.5 28.5t-28.5 68.5t28.5 68t68.5 28z" />
    <glyph glyph-name="multiply" unicode="&#xd7;" 
d="M504 626l-336 -336l-43 44l335 335l-335 335l43 44l336 -336l335 336l44 -44l-336 -335l336 -335l-44 -44z" />
    <glyph glyph-name="Oslash" unicode="&#xd8;" horiz-adv-x="1661" 
d="M1198 1300l136 202h82l-160 -239q150 -110 230 -259t80 -318q0 -144 -59 -277q-45 -103 -123 -190t-179 -147q-178 -106 -383 -106q-194 0 -366 96l-132 -199h-82l157 236q-146 101 -224.5 250.5t-78.5 324.5q0 167 72 310.5t210 250.5q102 79 221.5 121.5t240.5 42.5
q188 0 358 -99zM1140 1233q-62 70 -136 102t-173 32q-110 0 -189 -40q-136 -67 -220 -251.5t-84 -413.5q0 -139 32.5 -249t105.5 -217zM1185 1174l-665 -1033q69 -76 141.5 -109t167.5 -33q127 0 218 59q60 38 115 106.5t93 149.5q69 151 69 350q0 293 -139 510z" />
    <glyph glyph-name="Ugrave" unicode="&#xd9;" horiz-adv-x="1542" 
d="M674 1365v-23q-57 -3 -93 -16t-63 -42q-33 -34 -43.5 -84t-10.5 -172v-566q0 -138 10.5 -199.5t42.5 -113.5q48 -79 118.5 -114.5t177.5 -35.5q104 0 198.5 31.5t157.5 87.5q39 35 57.5 76t24.5 104q4 41 4 194v559q0 103 -11.5 152t-42.5 81q-28 29 -63.5 42t-92.5 16
v23h461v-23q-57 -3 -92.5 -16t-63.5 -42q-31 -32 -42.5 -81.5t-11.5 -151.5v-631q0 -140 -21.5 -206.5t-85.5 -121.5q-146 -126 -417 -126q-283 0 -417 119q-87 76 -104 200q-6 44 -6 159v607q0 103 -11 152t-43 81q-27 29 -62.5 42t-93.5 16v23h639zM873 1526h-48l-348 246
h200z" />
    <glyph glyph-name="Uacute" unicode="&#xda;" horiz-adv-x="1542" 
d="M674 1365v-23q-57 -3 -93 -16t-63 -42q-33 -34 -43.5 -84t-10.5 -172v-566q0 -138 10.5 -199.5t42.5 -113.5q48 -79 118.5 -114.5t177.5 -35.5q104 0 198.5 31.5t157.5 87.5q39 35 57.5 76t24.5 104q4 41 4 194v559q0 103 -11.5 152t-42.5 81q-28 29 -63.5 42t-92.5 16
v23h461v-23q-57 -3 -92.5 -16t-63.5 -42q-31 -32 -42.5 -81.5t-11.5 -151.5v-631q0 -140 -21.5 -206.5t-85.5 -121.5q-146 -126 -417 -126q-283 0 -417 119q-87 76 -104 200q-6 44 -6 159v607q0 103 -11 152t-43 81q-27 29 -62.5 42t-93.5 16v23h639zM737 1526l197 246h200
l-348 -246h-49z" />
    <glyph glyph-name="Ucircumflex" unicode="&#xdb;" horiz-adv-x="1542" 
d="M674 1365v-23q-57 -3 -93 -16t-63 -42q-33 -34 -43.5 -84t-10.5 -172v-566q0 -138 10.5 -199.5t42.5 -113.5q48 -79 118.5 -114.5t177.5 -35.5q104 0 198.5 31.5t157.5 87.5q39 35 57.5 76t24.5 104q4 41 4 194v559q0 103 -11.5 152t-42.5 81q-28 29 -63.5 42t-92.5 16
v23h461v-23q-57 -3 -92.5 -16t-63.5 -42q-31 -32 -42.5 -81.5t-11.5 -151.5v-631q0 -140 -21.5 -206.5t-85.5 -121.5q-146 -126 -417 -126q-283 0 -417 119q-87 76 -104 200q-6 44 -6 159v607q0 103 -11 152t-43 81q-27 29 -62.5 42t-93.5 16v23h639zM825 1659l-238 -145
h-54l271 254h43l271 -254h-55z" />
    <glyph glyph-name="Udieresis" unicode="&#xdc;" horiz-adv-x="1542" 
d="M674 1365v-23q-57 -3 -93 -16t-63 -42q-33 -34 -43.5 -84t-10.5 -172v-566q0 -138 10.5 -199.5t42.5 -113.5q48 -79 118.5 -114.5t177.5 -35.5q104 0 198.5 31.5t157.5 87.5q39 35 57.5 76t24.5 104q4 41 4 194v559q0 103 -11.5 152t-42.5 81q-28 29 -63.5 42t-92.5 16
v23h461v-23q-57 -3 -92.5 -16t-63.5 -42q-31 -32 -42.5 -81.5t-11.5 -151.5v-631q0 -140 -21.5 -206.5t-85.5 -121.5q-146 -126 -417 -126q-283 0 -417 119q-87 76 -104 200q-6 44 -6 159v607q0 103 -11 152t-43 81q-27 29 -62.5 42t-93.5 16v23h639zM625 1748
q40 0 69 -28.5t29 -69.5q0 -40 -29 -69t-69 -29q-41 0 -69.5 29t-28.5 69q0 41 28.5 69.5t69.5 28.5zM1000 1747q40 0 68 -28t28 -68t-28 -68.5t-68 -28.5t-68.5 28.5t-28.5 68.5t28.5 68t68.5 28z" />
    <glyph glyph-name="Yacute" unicode="&#xdd;" horiz-adv-x="1345" 
d="M375 0v23q57 3 93 16t64 42q31 32 42 81t11 152l1 195q0 42 -17 93q-19 59 -78 148l-259 389l-46 70q-51 76 -100 104q-25 15 -50 21t-70 8v23h652v-23q-83 -5 -106 -15q-56 -24 -56 -87q0 -23 12.5 -52t40.5 -73l271 -424l232 362l26 41q37 58 37 114q0 64 -41 99
t-115 35v23h460v-23q-52 -6 -80 -17.5t-57 -37.5q-68 -64 -151 -191l-228 -348q-41 -62 -50 -91t-9 -98v-245q0 -107 10.5 -153.5t42.5 -79.5q55 -58 157 -58v-23h-639zM734 1526l197 246h200l-348 -246h-49z" />
    <glyph glyph-name="Thorn" unicode="&#xde;" horiz-adv-x="1182" 
d="M475 1106h174q159 0 234 -16t136 -63q142 -109 142 -293q0 -179 -144 -265q-74 -43 -182 -52q-34 -3 -164 -3h-196v-100q0 -102 11.5 -151.5t42.5 -81.5q27 -28 62 -41t92 -17v-23h-634v23q57 4 92 17t62 41q31 32 42.5 81t11.5 152v737q0 103 -11.5 152t-42.5 81
q-27 28 -62.5 41.5t-91.5 16.5v23h636v-23q-128 -6 -179 -83q-31 -47 -31 -153zM475 1075v-630h99q99 0 152.5 14.5t96.5 53.5q99 89 99 233q0 176 -111 267q-61 51 -146 60q-23 2 -106 2h-84z" />
    <glyph glyph-name="germandbls" unicode="&#xdf;" horiz-adv-x="964" 
d="M15 20q60 8 86 22.5t42 49.5q11 23 15.5 69.5t4.5 133.5v731q0 91 31 167.5t88 127.5q88 79 220 79q75 0 141 -24t107 -66q75 -76 75 -203q0 -58 -15 -93q-7 -16 -16 -26t-36 -35l-173 -152q-34 -30 -34 -43q0 -10 16 -28l37 -41q95 -108 200 -256q56 -79 77.5 -127
t21.5 -94q0 -48 -23 -95q-32 -65 -96 -100t-153 -35q-111 0 -189 44t-78 106q0 30 19.5 49.5t49.5 19.5q31 0 50.5 -19.5t33.5 -63.5q20 -62 44 -84q31 -30 81 -30q53 0 88.5 37.5t35.5 94.5q0 32 -13 65.5t-46 83.5q-28 43 -88.5 125.5t-103.5 135.5l-59 74q-27 34 -27 56
q0 24 27 50l69 64q75 71 107 143t32 170q0 134 -45 204.5t-132 70.5q-41 0 -77.5 -19t-56.5 -51q-22 -33 -31 -91t-9 -162v-1055h-298v20z" />
    <glyph glyph-name="agrave" unicode="&#xe0;" horiz-adv-x="874" 
d="M882 97l17 -10q-36 -105 -165 -105q-71 0 -118 35q-31 23 -64 80q-67 -60 -101 -79q-65 -36 -151 -36q-110 0 -174.5 53t-64.5 143q0 83 53 139q30 31 69 49.5t113 37.5q87 22 128.5 37t69.5 36q32 23 44 54t12 86q0 117 -44 171q-20 25 -51.5 40t-65.5 15q-41 0 -73 -21
t-48 -58l-25 -58q-20 -47 -72 -47q-34 0 -57 22.5t-23 56.5q0 51 72 86q39 18 96.5 29.5t112.5 11.5q62 0 129 -16t112 -41q65 -37 81 -96q8 -30 8 -101v-370q0 -94 8 -128q17 -71 82 -71q31 0 48.5 11t41.5 44zM552 491q-54 -45 -119 -79q-73 -39 -101 -59t-51 -48
q-47 -58 -47 -135q0 -66 36.5 -109t92.5 -43q49 0 92.5 30.5t65.5 81.5q31 67 31 194v167zM525 1000h-49l-320 273h186z" />
    <glyph glyph-name="aacute" unicode="&#xe1;" horiz-adv-x="874" 
d="M882 97l17 -10q-36 -105 -165 -105q-71 0 -118 35q-31 23 -64 80q-67 -60 -101 -79q-65 -36 -151 -36q-110 0 -174.5 53t-64.5 143q0 83 53 139q30 31 69 49.5t113 37.5q87 22 128.5 37t69.5 36q32 23 44 54t12 86q0 117 -44 171q-20 25 -51.5 40t-65.5 15q-41 0 -73 -21
t-48 -58l-25 -58q-20 -47 -72 -47q-34 0 -57 22.5t-23 56.5q0 51 72 86q39 18 96.5 29.5t112.5 11.5q62 0 129 -16t112 -41q65 -37 81 -96q8 -30 8 -101v-370q0 -94 8 -128q17 -71 82 -71q31 0 48.5 11t41.5 44zM552 491q-54 -45 -119 -79q-73 -39 -101 -59t-51 -48
q-47 -58 -47 -135q0 -66 36.5 -109t92.5 -43q49 0 92.5 30.5t65.5 81.5q31 67 31 194v167zM321 1000l183 273h186l-320 -273h-49z" />
    <glyph glyph-name="acircumflex" unicode="&#xe2;" horiz-adv-x="874" 
d="M882 97l17 -10q-36 -105 -165 -105q-71 0 -118 35q-31 23 -64 80q-67 -60 -101 -79q-65 -36 -151 -36q-110 0 -174.5 53t-64.5 143q0 83 53 139q30 31 69 49.5t113 37.5q87 22 128.5 37t69.5 36q32 23 44 54t12 86q0 117 -44 171q-20 25 -51.5 40t-65.5 15q-41 0 -73 -21
t-48 -58l-25 -58q-20 -47 -72 -47q-34 0 -57 22.5t-23 56.5q0 51 72 86q39 18 96.5 29.5t112.5 11.5q62 0 129 -16t112 -41q65 -37 81 -96q8 -30 8 -101v-370q0 -94 8 -128q17 -71 82 -71q31 0 48.5 11t41.5 44zM552 491q-54 -45 -119 -79q-73 -39 -101 -59t-51 -48
q-47 -58 -47 -135q0 -66 36.5 -109t92.5 -43q49 0 92.5 30.5t65.5 81.5q31 67 31 194v167zM412 1168l-224 -146h-48l257 281h30l257 -281h-48z" />
    <glyph glyph-name="atilde" unicode="&#xe3;" horiz-adv-x="874" 
d="M882 97l17 -10q-36 -105 -165 -105q-71 0 -118 35q-31 23 -64 80q-67 -60 -101 -79q-65 -36 -151 -36q-110 0 -174.5 53t-64.5 143q0 83 53 139q30 31 69 49.5t113 37.5q87 22 128.5 37t69.5 36q32 23 44 54t12 86q0 117 -44 171q-20 25 -51.5 40t-65.5 15q-41 0 -73 -21
t-48 -58l-25 -58q-20 -47 -72 -47q-34 0 -57 22.5t-23 56.5q0 51 72 86q39 18 96.5 29.5t112.5 11.5q62 0 129 -16t112 -41q65 -37 81 -96q8 -30 8 -101v-370q0 -94 8 -128q17 -71 82 -71q31 0 48.5 11t41.5 44zM552 491q-54 -45 -119 -79q-73 -39 -101 -59t-51 -48
q-47 -58 -47 -135q0 -66 36.5 -109t92.5 -43q49 0 92.5 30.5t65.5 81.5q31 67 31 194v167zM614 1223h20q3 -22 3 -32q0 -61 -33 -100.5t-84 -39.5q-60 0 -127 38l-51 29q-37 21 -69 21q-61 0 -68 -66h-20q-1 14 -1 21q0 69 30.5 109t82.5 40q45 0 106 -32l50 -26
q56 -30 94 -30q30 0 44 14t23 54z" />
    <glyph glyph-name="adieresis" unicode="&#xe4;" horiz-adv-x="874" 
d="M882 97l17 -10q-36 -105 -165 -105q-71 0 -118 35q-31 23 -64 80q-67 -60 -101 -79q-65 -36 -151 -36q-110 0 -174.5 53t-64.5 143q0 83 53 139q30 31 69 49.5t113 37.5q87 22 128.5 37t69.5 36q32 23 44 54t12 86q0 117 -44 171q-20 25 -51.5 40t-65.5 15q-41 0 -73 -21
t-48 -58l-25 -58q-20 -47 -72 -47q-34 0 -57 22.5t-23 56.5q0 51 72 86q39 18 96.5 29.5t112.5 11.5q62 0 129 -16t112 -41q65 -37 81 -96q8 -30 8 -101v-370q0 -94 8 -128q17 -71 82 -71q31 0 48.5 11t41.5 44zM552 491q-54 -45 -119 -79q-73 -39 -101 -59t-51 -48
q-47 -58 -47 -135q0 -66 36.5 -109t92.5 -43q49 0 92.5 30.5t65.5 81.5q31 67 31 194v167zM239 1240q37 0 63 -26t26 -63q0 -36 -26 -62t-63 -26t-63 25.5t-26 62.5t26 63t63 26zM580 1240q36 0 62 -26t26 -62q0 -37 -26 -62.5t-62 -25.5q-37 0 -62.5 25.5t-25.5 62.5
q0 36 25.5 62t62.5 26z" />
    <glyph glyph-name="aring" unicode="&#xe5;" horiz-adv-x="874" 
d="M882 97l17 -10q-36 -105 -165 -105q-71 0 -118 35q-31 23 -64 80q-67 -60 -101 -79q-65 -36 -151 -36q-110 0 -174.5 53t-64.5 143q0 83 53 139q30 31 69 49.5t113 37.5q87 22 128.5 37t69.5 36q32 23 44 54t12 86q0 117 -44 171q-20 25 -51.5 40t-65.5 15q-41 0 -73 -21
t-48 -58l-25 -58q-20 -47 -72 -47q-34 0 -57 22.5t-23 56.5q0 51 72 86q39 18 96.5 29.5t112.5 11.5q62 0 129 -16t112 -41q65 -37 81 -96q8 -30 8 -101v-370q0 -94 8 -128q17 -71 82 -71q31 0 48.5 11t41.5 44zM552 491q-54 -45 -119 -79q-73 -39 -101 -59t-51 -48
q-47 -58 -47 -135q0 -66 36.5 -109t92.5 -43q49 0 92.5 30.5t65.5 81.5q31 67 31 194v167zM409 1313q68 0 116 -48t48 -115q0 -68 -48 -116t-116 -48t-116 48t-48 116q0 67 48 115t116 48zM409 1262q-47 0 -79.5 -33t-32.5 -79q0 -47 32.5 -79.5t79.5 -32.5q46 0 79 32.5
t33 79.5q0 46 -33 79t-79 33z" />
    <glyph glyph-name="ae" unicode="&#xe6;" horiz-adv-x="1400" 
d="M648 112q-87 -66 -134 -87q-93 -43 -205 -43q-116 0 -182 52t-66 144q0 83 53 139q30 31 69 49.5t113 37.5q87 22 128.5 37t69.5 36q32 23 44 53.5t12 86.5q0 117 -44 171q-20 25 -51.5 40t-65.5 15q-41 0 -73 -21t-48 -58l-25 -58q-20 -47 -72 -47q-34 0 -57 22.5
t-23 56.5q0 51 72 86q39 18 96.5 29.5t113.5 11.5q99 0 193 -35q44 -16 67 -31.5t45 -44.5q52 52 129.5 81.5t159.5 29.5q80 0 147.5 -29t114.5 -83q73 -83 73 -209h-587q-4 -49 -4 -71q0 -87 26 -170t69 -138q45 -56 112 -88t139 -32q54 0 102.5 18t80.5 50q36 35 62 112
l20 -7q-53 -236 -341 -236q-223 0 -333 130zM1154 582q-8 101 -38 155q-27 49 -72 77.5t-96 28.5q-86 0 -150.5 -74.5t-76.5 -186.5h433zM552 491q-54 -45 -119 -79q-73 -39 -101 -59t-51 -48q-47 -59 -47 -135q0 -67 36.5 -109.5t92.5 -42.5q49 0 92.5 30.5t65.5 81.5
q31 67 31 194v167z" />
    <glyph glyph-name="ccedilla" unicode="&#xe7;" horiz-adv-x="852" 
d="M490 -18l-36 -102q64 -10 99 -31q61 -36 61 -97q0 -60 -52 -99t-132 -39t-168 41l11 17q68 -26 113 -26q51 0 85 30t34 75q0 72 -113 106l46 127q-120 12 -198 63q-85 55 -132 147.5t-47 204.5q0 95 35 184q52 135 162 208.5t262 73.5q145 0 227 -65q50 -40 50 -88
q0 -32 -21 -53.5t-51 -21.5q-65 0 -96 95q-14 44 -22.5 60t-24.5 28q-31 23 -76 23q-59 0 -109 -33q-44 -29 -74.5 -72.5t-53.5 -109.5q-35 -101 -35 -198q0 -89 32 -174t87 -142q86 -90 202 -90q96 0 159 61q32 32 61 104l20 -8q-35 -105 -107 -152t-198 -47z" />
    <glyph glyph-name="egrave" unicode="&#xe8;" horiz-adv-x="923" 
d="M238 544q-4 -49 -4 -71q0 -87 25.5 -170t69.5 -138q45 -56 111.5 -88t139.5 -32q54 0 102.5 18t80.5 50q36 35 62 112l20 -7q-26 -117 -111.5 -176.5t-227.5 -59.5q-123 0 -211 39t-149 120q-85 113 -85 278q0 225 161 353q117 93 267 93q80 0 148 -28.5t115 -82.5
q73 -84 73 -210h-587zM676 583q-7 100 -37 154q-27 49 -72 77.5t-96 28.5q-86 0 -150.5 -74t-76.5 -186h432zM550 1000h-49l-320 273h186z" />
    <glyph glyph-name="eacute" unicode="&#xe9;" horiz-adv-x="923" 
d="M238 544q-4 -49 -4 -71q0 -87 25.5 -170t69.5 -138q45 -56 111.5 -88t139.5 -32q54 0 102.5 18t80.5 50q36 35 62 112l20 -7q-26 -117 -111.5 -176.5t-227.5 -59.5q-123 0 -211 39t-149 120q-85 113 -85 278q0 225 161 353q117 93 267 93q80 0 148 -28.5t115 -82.5
q73 -84 73 -210h-587zM676 583q-7 100 -37 154q-27 49 -72 77.5t-96 28.5q-86 0 -150.5 -74t-76.5 -186h432zM386 1000l183 273h186l-320 -273h-49z" />
    <glyph glyph-name="ecircumflex" unicode="&#xea;" horiz-adv-x="923" 
d="M238 544q-4 -49 -4 -71q0 -87 25.5 -170t69.5 -138q45 -56 111.5 -88t139.5 -32q54 0 102.5 18t80.5 50q36 35 62 112l20 -7q-26 -117 -111.5 -176.5t-227.5 -59.5q-123 0 -211 39t-149 120q-85 113 -85 278q0 225 161 353q117 93 267 93q80 0 148 -28.5t115 -82.5
q73 -84 73 -210h-587zM676 583q-7 100 -37 154q-27 49 -72 77.5t-96 28.5q-86 0 -150.5 -74t-76.5 -186h432zM470 1168l-224 -146h-48l257 281h30l257 -281h-48z" />
    <glyph glyph-name="edieresis" unicode="&#xeb;" horiz-adv-x="923" 
d="M238 544q-4 -49 -4 -71q0 -87 25.5 -170t69.5 -138q45 -56 111.5 -88t139.5 -32q54 0 102.5 18t80.5 50q36 35 62 112l20 -7q-26 -117 -111.5 -176.5t-227.5 -59.5q-123 0 -211 39t-149 120q-85 113 -85 278q0 225 161 353q117 93 267 93q80 0 148 -28.5t115 -82.5
q73 -84 73 -210h-587zM676 583q-7 100 -37 154q-27 49 -72 77.5t-96 28.5q-86 0 -150.5 -74t-76.5 -186h432zM291 1240q37 0 63 -26t26 -63q0 -36 -26 -62t-63 -26t-63 25.5t-26 62.5t26 63t63 26zM632 1240q36 0 62 -26t26 -62q0 -37 -26 -62.5t-62 -25.5q-37 0 -62.5 25.5
t-25.5 62.5q0 36 25.5 62t62.5 26z" />
    <glyph glyph-name="igrave" unicode="&#xec;" horiz-adv-x="496" 
d="M38 831l287 36v-578l1 -76q0 -68 8 -99.5t31 -52.5q28 -27 103 -41v-20h-441v20q60 8 86 22.5t42 49.5q11 23 15.5 69.5t4.5 134.5v247q0 103 -5 144.5t-22 67.5q-17 28 -41 40.5t-69 15.5v20zM323 1000h-49l-320 273h186z" />
    <glyph glyph-name="iacute" unicode="&#xed;" horiz-adv-x="496" 
d="M38 831l287 36v-578l1 -76q0 -68 8 -99.5t31 -52.5q28 -27 103 -41v-20h-441v20q60 8 86 22.5t42 49.5q11 23 15.5 69.5t4.5 134.5v247q0 103 -5 144.5t-22 67.5q-17 28 -41 40.5t-69 15.5v20zM132 1000l183 273h186l-320 -273h-49z" />
    <glyph glyph-name="icircumflex" unicode="&#xee;" horiz-adv-x="496" 
d="M38 831l287 36v-578l1 -76q0 -68 8 -99.5t31 -52.5q28 -27 103 -41v-20h-441v20q60 8 86 22.5t42 49.5q11 23 15.5 69.5t4.5 134.5v247q0 103 -5 144.5t-22 67.5q-17 28 -41 40.5t-69 15.5v20zM230 1168l-224 -146h-48l257 281h30l257 -281h-48z" />
    <glyph glyph-name="idieresis" unicode="&#xef;" horiz-adv-x="496" 
d="M38 831l287 36v-578l1 -76q0 -68 8 -99.5t31 -52.5q28 -27 103 -41v-20h-441v20q60 8 86 22.5t42 49.5q11 23 15.5 69.5t4.5 134.5v247q0 103 -5 144.5t-22 67.5q-17 28 -41 40.5t-69 15.5v20zM126 1240q36 0 62.5 -26t26.5 -63q0 -36 -26.5 -62t-62.5 -26
q-37 0 -63 25.5t-26 62.5t26 63t63 26zM371 1240q36 0 62 -26t26 -62q0 -37 -26 -62.5t-62 -25.5t-62 25.5t-26 62.5q0 36 26 62t62 26z" />
    <glyph glyph-name="eth" unicode="&#xf0;" horiz-adv-x="1060" 
d="M615 1144l-174 -113l-25 38l177 115q-67 118 -128 194l19 16q65 -63 147 -161l13 -16l180 117l25 -38l-176 -114l13 -16q174 -218 248 -414q64 -173 64 -321q0 -171 -114 -295q-141 -154 -354 -154q-215 0 -355 154q-114 125 -114 287q0 160 120 288q145 154 349 154
q97 0 198 -44q-25 149 -113 323zM520 845q-115 0 -200 -120t-85 -294q0 -172 80 -294q44 -65 100.5 -100t120.5 -35q57 0 109 29.5t90 83.5q40 58 64.5 142.5t24.5 166.5q0 81 -26.5 165t-70.5 142q-85 114 -207 114z" />
    <glyph glyph-name="ntilde" unicode="&#xf1;" horiz-adv-x="1066" 
d="M311 867q14 -58 14 -108v-16q124 122 295 122q128 0 206 -60q77 -59 77 -168v-424q0 -68 8 -99.5t31 -52.5q28 -27 103 -41v-20h-441v20q60 8 86 22.5t42 49.5q11 23 15.5 69.5t4.5 133.5v212q0 109 -7.5 160t-28.5 82q-23 35 -66 54.5t-95 19.5q-56 0 -104.5 -22
t-76.5 -60q-30 -40 -39.5 -90.5t-9.5 -167.5v-196l1 -74q0 -68 8 -99.5t31 -52.5q28 -27 103 -41v-20h-441v20q60 8 86 22.5t42 49.5q11 23 15.5 69.5t4.5 134.5v247q0 103 -5 144.5t-22 67.5q-17 28 -41 40.5t-69 15.5v20zM765 1223h20q3 -22 3 -32q0 -61 -33 -100.5
t-84 -39.5q-60 0 -127 38l-51 29q-37 21 -69 21q-61 0 -68 -66h-20q-1 14 -1 21q0 69 30.5 109t82.5 40q45 0 106 -32l50 -26q56 -30 94 -30q30 0 44 14t23 54z" />
    <glyph glyph-name="ograve" unicode="&#xf2;" horiz-adv-x="1060" 
d="M61 422q0 162 120 289q146 154 349 154t348 -154q120 -128 120 -290q0 -160 -114 -285q-140 -154 -354 -154t-355 154q-55 60 -84.5 134t-29.5 152zM243 433q0 -174 78 -295q88 -135 215 -135q54 0 105 30t88 84q39 56 63 140.5t24 163.5q0 82 -25.5 165.5t-68.5 143.5
q-82 113 -201 113q-113 0 -195 -119q-83 -119 -83 -291zM646 1000h-49l-320 273h186z" />
    <glyph glyph-name="oacute" unicode="&#xf3;" horiz-adv-x="1060" 
d="M61 422q0 162 120 289q146 154 349 154t348 -154q120 -128 120 -290q0 -160 -114 -285q-140 -154 -354 -154t-355 154q-55 60 -84.5 134t-29.5 152zM243 433q0 -174 78 -295q88 -135 215 -135q54 0 105 30t88 84q39 56 63 140.5t24 163.5q0 82 -25.5 165.5t-68.5 143.5
q-82 113 -201 113q-113 0 -195 -119q-83 -119 -83 -291zM414 1000l183 273h186l-320 -273h-49z" />
    <glyph glyph-name="ocircumflex" unicode="&#xf4;" horiz-adv-x="1060" 
d="M61 422q0 162 120 289q146 154 349 154t348 -154q120 -128 120 -290q0 -160 -114 -285q-140 -154 -354 -154t-355 154q-55 60 -84.5 134t-29.5 152zM243 433q0 -174 78 -295q88 -135 215 -135q54 0 105 30t88 84q39 56 63 140.5t24 163.5q0 82 -25.5 165.5t-68.5 143.5
q-82 113 -201 113q-113 0 -195 -119q-83 -119 -83 -291zM539 1168l-224 -146h-48l257 281h30l257 -281h-48z" />
    <glyph glyph-name="otilde" unicode="&#xf5;" horiz-adv-x="1060" 
d="M61 422q0 162 120 289q146 154 349 154t348 -154q120 -128 120 -290q0 -160 -114 -285q-140 -154 -354 -154t-355 154q-55 60 -84.5 134t-29.5 152zM243 433q0 -174 78 -295q88 -135 215 -135q54 0 105 30t88 84q39 56 63 140.5t24 163.5q0 82 -25.5 165.5t-68.5 143.5
q-82 113 -201 113q-113 0 -195 -119q-83 -119 -83 -291zM735 1223h20q3 -22 3 -32q0 -61 -33 -100.5t-84 -39.5q-60 0 -127 38l-51 29q-37 21 -69 21q-61 0 -68 -66h-20q-1 14 -1 21q0 69 30.5 109t82.5 40q45 0 106 -32l50 -26q56 -30 94 -30q30 0 44 14t23 54z" />
    <glyph glyph-name="odieresis" unicode="&#xf6;" horiz-adv-x="1060" 
d="M61 422q0 162 120 289q146 154 349 154t348 -154q120 -128 120 -290q0 -160 -114 -285q-140 -154 -354 -154t-355 154q-55 60 -84.5 134t-29.5 152zM243 433q0 -174 78 -295q88 -135 215 -135q54 0 105 30t88 84q39 56 63 140.5t24 163.5q0 82 -25.5 165.5t-68.5 143.5
q-82 113 -201 113q-113 0 -195 -119q-83 -119 -83 -291zM360 1240q37 0 63 -26t26 -63q0 -36 -26 -62t-63 -26t-63 25.5t-26 62.5t26 63t63 26zM701 1240q36 0 62 -26t26 -62q0 -37 -26 -62.5t-62 -25.5q-37 0 -62.5 25.5t-25.5 62.5q0 36 25.5 62t62.5 26z" />
    <glyph glyph-name="divide" unicode="&#xf7;" 
d="M66 700h874v-62h-874v62zM503 1026q35 0 59.5 -24.5t24.5 -59.5t-24.5 -59.5t-59.5 -24.5t-59.5 24.5t-24.5 59.5t24.5 59.5t59.5 24.5zM503 480q35 0 59.5 -24.5t24.5 -59.5t-24.5 -59.5t-59.5 -24.5t-59.5 24.5t-24.5 59.5t24.5 59.5t59.5 24.5z" />
    <glyph glyph-name="oslash" unicode="&#xf8;" horiz-adv-x="1060" 
d="M773 797l146 200h68l-170 -231q88 -68 134.5 -157t46.5 -188q0 -160 -114 -285q-140 -154 -353 -154q-136 0 -242 62l-121 -167h-68l142 198q-85 64 -133 155t-48 191q0 162 120 289q145 155 348 155q131 0 244 -68zM719 733q-82 110 -199 110q-112 0 -194 -119
q-83 -120 -83 -292q0 -160 66 -274zM749 685l-406 -577q84 -105 191 -105q67 0 121 39q80 55 123 172q38 103 38 206q0 143 -67 265z" />
    <glyph glyph-name="ugrave" unicode="&#xf9;" horiz-adv-x="1048" 
d="M747 -17q-13 60 -13 123q-125 -124 -296 -124q-125 0 -201 61q-74 60 -74 170v348l-1 76q0 68 -8 99t-30 53q-29 27 -104 40v21h293v-507q0 -107 7.5 -158.5t27.5 -84.5q22 -34 63 -53.5t92 -19.5q56 0 105 22t77 60q29 39 38.5 90t9.5 168v196l-1 74q0 68 -7.5 99
t-30.5 53q-28 27 -104 40v21h293v-543q0 -103 5.5 -144.5t21.5 -67.5q18 -28 42 -40.5t69 -15.5v-20zM640 1000h-49l-320 273h186z" />
    <glyph glyph-name="uacute" unicode="&#xfa;" horiz-adv-x="1048" 
d="M747 -17q-13 60 -13 123q-125 -124 -296 -124q-125 0 -201 61q-74 60 -74 170v348l-1 76q0 68 -8 99t-30 53q-29 27 -104 40v21h293v-507q0 -107 7.5 -158.5t27.5 -84.5q22 -34 63 -53.5t92 -19.5q56 0 105 22t77 60q29 39 38.5 90t9.5 168v196l-1 74q0 68 -7.5 99
t-30.5 53q-28 27 -104 40v21h293v-543q0 -103 5.5 -144.5t21.5 -67.5q18 -28 42 -40.5t69 -15.5v-20zM408 1000l183 273h186l-320 -273h-49z" />
    <glyph glyph-name="ucircumflex" unicode="&#xfb;" horiz-adv-x="1048" 
d="M747 -17q-13 60 -13 123q-125 -124 -296 -124q-125 0 -201 61q-74 60 -74 170v348l-1 76q0 68 -8 99t-30 53q-29 27 -104 40v21h293v-507q0 -107 7.5 -158.5t27.5 -84.5q22 -34 63 -53.5t92 -19.5q56 0 105 22t77 60q29 39 38.5 90t9.5 168v196l-1 74q0 68 -7.5 99
t-30.5 53q-28 27 -104 40v21h293v-543q0 -103 5.5 -144.5t21.5 -67.5q18 -28 42 -40.5t69 -15.5v-20zM533 1168l-224 -146h-48l257 281h30l257 -281h-48z" />
    <glyph glyph-name="udieresis" unicode="&#xfc;" horiz-adv-x="1048" 
d="M747 -17q-13 60 -13 123q-125 -124 -296 -124q-125 0 -201 61q-74 60 -74 170v348l-1 76q0 68 -8 99t-30 53q-29 27 -104 40v21h293v-507q0 -107 7.5 -158.5t27.5 -84.5q22 -34 63 -53.5t92 -19.5q56 0 105 22t77 60q29 39 38.5 90t9.5 168v196l-1 74q0 68 -7.5 99
t-30.5 53q-28 27 -104 40v21h293v-543q0 -103 5.5 -144.5t21.5 -67.5q18 -28 42 -40.5t69 -15.5v-20zM340 1240q37 0 63 -26t26 -63q0 -36 -26 -62t-63 -26t-63 25.5t-26 62.5t26 63t63 26zM681 1240q36 0 62 -26t26 -62q0 -37 -26 -62.5t-62 -25.5q-37 0 -62.5 25.5
t-25.5 62.5q0 36 25.5 62t62.5 26z" />
    <glyph glyph-name="yacute" unicode="&#xfd;" horiz-adv-x="856" 
d="M-3 850h387v-21q-41 -6 -59 -16q-39 -22 -39 -68q0 -40 41 -143l168 -429l146 361q54 135 54 191q0 45 -25 71.5t-73 32.5v21h286v-21q-43 -12 -63.5 -25t-39.5 -41q-29 -44 -92 -197l-290 -704q-52 -126 -84 -164q-54 -63 -137 -63q-53 0 -85.5 20.5t-32.5 53.5
q0 26 19 41.5t50 15.5q26 0 60 -14q33 -13 42.5 -16t22.5 -3q62 0 101 93l31 76q20 48 20 74q0 37 -38 129l-208 499l-30 72q-27 64 -42 91t-30 39q-25 19 -60 23v21zM348 1000l183 273h186l-320 -273h-49z" />
    <glyph glyph-name="thorn" unicode="&#xfe;" horiz-adv-x="1068" 
d="M327 84v-184l1 -69q0 -68 7.5 -99.5t30.5 -52.5q29 -28 104 -41v-20h-436v20q10 2 16 3q50 9 74 26t37 54q16 42 16 192v1167q0 103 -5.5 144.5t-21.5 67.5q-18 30 -43.5 42t-72.5 14v20l293 36v-631q65 48 132 70t148 22q148 0 256 -91q143 -120 143 -344
q0 -104 -40.5 -198t-111.5 -154q-55 -46 -124.5 -71t-144.5 -25q-77 0 -131.5 21.5t-126.5 80.5zM556 845q-53 0 -99 -26.5t-76 -73.5q-29 -47 -41.5 -119t-12.5 -194q0 -154 11.5 -226.5t43.5 -117.5q27 -39 73 -62.5t95 -23.5q104 0 183 102q48 62 73.5 146t25.5 180
q0 84 -25 167.5t-68 142.5q-76 105 -183 105z" />
    <glyph glyph-name="ydieresis" unicode="&#xff;" horiz-adv-x="856" 
d="M-3 850h387v-21q-41 -6 -59 -16q-39 -22 -39 -68q0 -40 41 -143l168 -429l146 361q54 135 54 191q0 45 -25 71.5t-73 32.5v21h286v-21q-43 -12 -63.5 -25t-39.5 -41q-29 -44 -92 -197l-290 -704q-52 -126 -84 -164q-54 -63 -137 -63q-53 0 -85.5 20.5t-32.5 53.5
q0 26 19 41.5t50 15.5q26 0 60 -14q33 -13 42.5 -16t22.5 -3q62 0 101 93l31 76q20 48 20 74q0 37 -38 129l-208 499l-30 72q-27 64 -42 91t-30 39q-25 19 -60 23v21zM285 1240q37 0 63 -26t26 -63q0 -36 -26 -62t-63 -26t-63 25.5t-26 62.5t26 63t63 26zM626 1240
q36 0 62 -26t26 -62q0 -37 -26 -62.5t-62 -25.5q-37 0 -62.5 25.5t-25.5 62.5q0 36 25.5 62t62.5 26z" />
    <glyph glyph-name="dotlessi" unicode="&#x131;" horiz-adv-x="496" 
d="M38 831l287 36v-578l1 -76q0 -68 8 -99.5t31 -52.5q28 -27 103 -41v-20h-441v20q60 8 86 22.5t42 49.5q11 23 15.5 69.5t4.5 134.5v247q0 103 -5 144.5t-22 67.5q-17 28 -41 40.5t-69 15.5v20z" />
    <glyph glyph-name="OE" unicode="&#x152;" horiz-adv-x="2165" 
d="M2013 1365l16 -330l-23 -3q-19 99 -46.5 151t-81.5 89q-46 33 -113 47.5t-169 14.5h-230v-600h61q91 0 137 12t75 43q28 29 41.5 68.5t22.5 115.5h23l-8 -536h-23q-17 151 -76 208.5t-196 57.5h-57v-229q0 -53 4 -121q3 -71 10 -111.5t20 -71.5q30 -70 101.5 -104.5
t187.5 -34.5q119 0 200 30.5t132 94.5q36 44 58.5 99.5t41.5 144.5l24 -4l-14 -396h-926l-137 -3l-113 -2l-125 -3q-123 0 -251 45.5t-226 124.5q-121 97 -189 232.5t-68 279.5q0 142 66 275.5t187 237.5q216 187 495 187l143 -4l236 -5h790zM1148 397v642l-2 75
q0 86 -17 128t-62 64q-73 35 -211 35q-104 0 -183.5 -32.5t-143.5 -100.5q-88 -92 -140 -238.5t-52 -299.5q0 -159 57 -295.5t163 -234.5q67 -61 137 -88.5t158 -27.5q91 0 148.5 16t87.5 50q35 39 47.5 103.5t12.5 203.5z" />
    <glyph glyph-name="oe" unicode="&#x153;" horiz-adv-x="1683" 
d="M897 683q64 85 157.5 133.5t195.5 48.5q80 0 148 -29t114 -82q73 -84 73 -210h-587q-3 -49 -3 -71q0 -87 25.5 -170t68.5 -138q45 -56 112 -88t139 -32q54 0 102.5 18t81.5 50q36 35 61 112l20 -7q-13 -50 -30.5 -82.5t-47.5 -62.5q-92 -91 -272 -91q-146 0 -246 62
q-58 36 -114 110q-33 -43 -57.5 -65t-62.5 -44q-111 -63 -247 -63q-213 0 -353 154q-114 125 -114 285q0 162 120 290q145 154 348 154q113 0 208 -47t160 -135zM243 433q0 -174 78 -294q88 -134 215 -134q54 0 105 30t88 83q38 55 62 139.5t24 163.5q0 82 -25.5 165.5
t-68.5 143.5q-81 113 -200 113q-113 0 -195 -119q-83 -119 -83 -291zM1437 583q-7 100 -37 154q-28 49 -73 77.5t-96 28.5q-86 0 -150.5 -74t-76.5 -186h433z" />
    <glyph glyph-name="Scaron" unicode="&#x160;" horiz-adv-x="1059" 
d="M98 3l3 413h23q42 -158 100 -249q109 -168 274 -168q115 0 190 77t75 195q0 51 -16.5 104t-44.5 91q-29 39 -81.5 75t-160.5 91q-95 48 -145.5 81t-81.5 67q-86 94 -86 229q0 83 33.5 160t93.5 132q106 98 251 98q47 0 87 -9.5t107 -37.5q50 -20 68 -25.5t32 -5.5
q35 0 47 51h23l7 -397h-23q-27 95 -46.5 145.5t-46.5 93.5q-49 78 -108 115.5t-136 37.5q-112 0 -177 -76q-27 -31 -42.5 -73t-15.5 -84q0 -167 215 -269l141 -68q163 -77 235 -170q82 -104 82 -242q0 -92 -37 -176q-52 -117 -156 -180.5t-245 -63.5q-129 0 -248 51
q-62 27 -74 31t-27 4q-48 0 -66 -48h-23zM529 1622l238 146h54l-270 -254h-44l-270 254h54z" />
    <glyph glyph-name="scaron" unicode="&#x161;" horiz-adv-x="724" 
d="M96 0v283h16q28 -104 70 -166q77 -113 180 -113q63 0 109 38q50 42 50 119q0 63 -36 110q-20 25 -50.5 46t-102.5 59q-126 67 -168 112q-60 64 -60 148q0 90 60 155q69 74 183 74q51 0 95 -18l34 -15q16 -6 28 -6q19 0 36 30h20l11 -227h-21q-11 48 -23.5 77t-35.5 56
q-31 38 -72 59.5t-81 21.5q-56 0 -95.5 -40.5t-39.5 -99.5q0 -49 35.5 -88.5t109.5 -72.5l106 -48q95 -43 142 -107t47 -151q0 -105 -68 -174q-78 -80 -200 -80q-66 0 -134 26q-44 17 -53 19.5t-23 2.5q-35 0 -53 -30h-16zM371 1131l224 145h48l-257 -281h-30l-257 281h48z
" />
    <glyph glyph-name="Ydieresis" unicode="&#x178;" horiz-adv-x="1345" 
d="M375 0v23q57 3 93 16t64 42q31 32 42 81t11 152l1 195q0 42 -17 93q-19 59 -78 148l-259 389l-46 70q-51 76 -100 104q-25 15 -50 21t-70 8v23h652v-23q-83 -5 -106 -15q-56 -24 -56 -87q0 -23 12.5 -52t40.5 -73l271 -424l232 362l26 41q37 58 37 114q0 64 -41 99
t-115 35v23h460v-23q-52 -6 -80 -17.5t-57 -37.5q-68 -64 -151 -191l-228 -348q-41 -62 -50 -91t-9 -98v-245q0 -107 10.5 -153.5t42.5 -79.5q55 -58 157 -58v-23h-639zM539 1748q41 0 69.5 -28.5t28.5 -69.5q0 -40 -28.5 -69t-69.5 -29q-40 0 -68.5 29t-28.5 69
q0 41 28.5 69.5t68.5 28.5zM914 1747q40 0 68.5 -28t28.5 -68t-28.5 -68.5t-68.5 -28.5t-68 28.5t-28 68.5t28 68t68 28z" />
    <glyph glyph-name="florin" unicode="&#x192;" 
d="M493 920h-159l7 38h159l26 121q24 117 53.5 189t70.5 118q56 63 142.5 96.5t192.5 33.5q77 0 119 -24.5t42 -68.5q0 -31 -23.5 -53.5t-56.5 -22.5q-29 0 -47 14t-32 48q-20 48 -37 62t-57 14q-66 0 -119 -59q-51 -58 -77 -203l-47 -265h198l-7 -38h-198l-105 -593
q-29 -159 -80 -319q-21 -67 -39 -103.5t-45 -67.5q-50 -58 -128.5 -91t-166.5 -33q-129 0 -191 63q-25 24 -25 53q0 30 24.5 53t57.5 23q26 0 43 -15t31 -49q19 -48 26 -60q28 -48 81 -48q33 0 68.5 16t59.5 42q51 52 77 203z" />
    <glyph glyph-name="circumflex" unicode="&#x2c6;" horiz-adv-x="1024" 
d="M521 1168l-224 -146h-48l257 281h30l257 -281h-48z" />
    <glyph glyph-name="caron" unicode="&#x2c7;" horiz-adv-x="1024" 
d="M521 1131l224 145h48l-257 -281h-30l-257 281h48z" />
    <glyph glyph-name="macron" unicode="&#x2c9;" horiz-adv-x="1024" 
d="M255 1199h514v-94h-514v94z" />
    <glyph glyph-name="breve" unicode="&#x2d8;" horiz-adv-x="1024" 
d="M282 1281l20 -3q48 -124 210 -124q164 0 210 124l20 3q-5 -65 -33 -120q-64 -126 -198 -126q-130 0 -195 126q-29 55 -34 120z" />
    <glyph glyph-name="dotaccent" unicode="&#x2d9;" horiz-adv-x="1024" 
d="M512 1240q36 0 62 -26t26 -62q0 -37 -26 -62.5t-62 -25.5t-62 25.5t-26 62.5q0 36 26 62t62 26z" />
    <glyph glyph-name="ring" unicode="&#x2da;" horiz-adv-x="1024" 
d="M512 1313q68 0 116 -48t48 -115q0 -68 -48 -116t-116 -48t-116 48t-48 116q0 67 48 115t116 48zM512 1262q-47 0 -79.5 -33t-32.5 -79q0 -47 32.5 -79.5t79.5 -32.5q46 0 79 32.5t33 79.5q0 46 -33 79t-79 33z" />
    <glyph glyph-name="ogonek" unicode="&#x2db;" horiz-adv-x="1024" 
d="M699 0l-16 -17q-33 -36 -46.5 -61.5t-13.5 -51.5q0 -36 25 -57.5t67 -21.5q43 0 98 31l13 -19q-47 -33 -88.5 -47.5t-89.5 -14.5q-58 0 -96 28.5t-38 72.5q0 41 33 81.5t96 76.5h56z" />
    <glyph glyph-name="tilde" unicode="&#x2dc;" horiz-adv-x="1024" 
d="M717 1223h20q3 -22 3 -32q0 -61 -33 -100.5t-84 -39.5q-60 0 -127 38l-51 29q-37 21 -69 21q-61 0 -68 -66h-20q-1 14 -1 21q0 69 30.5 109t82.5 40q45 0 106 -32l50 -26q56 -30 94 -30q30 0 44 14t23 54z" />
    <glyph glyph-name="hungarumlaut" unicode="&#x2dd;" horiz-adv-x="1024" 
d="M266 1000l183 273h186l-320 -273h-49zM580 1000l183 273h186l-320 -273h-49z" />
    <glyph glyph-name="pi" unicode="&#x3c0;" horiz-adv-x="1024" 
d="M1136 956v-109h-308l-16 -40q-53 -131 -53 -213v-329q0 -90 7 -124t28 -49q19 -13 52 -13q17 0 68 15q9 2 28 7v-35l-222 -86q-17 -6 -23 -6q-12 0 -31 17.5t-34 41.5q-19 31 -25 59.5t-6 80.5v320q0 49 11 98.5t30 83.5l43 75l35 66q4 8 21 31l-352 -1l-4 -245
q0 -64 -14.5 -224.5t-28.5 -251.5q-13 -86 -34 -124t-55 -38q-30 0 -52.5 26t-22.5 59q0 39 22 95q29 73 47.5 149t32.5 173q8 65 18.5 199t10.5 183q-107 0 -167 -29q-42 -20 -77 -52.5t-83 -95.5l-25 28l141 185q30 40 73 57t115 17z" />
    <glyph glyph-name="endash" unicode="&#x2013;" 
d="M139 509h728v-150h-728v150z" />
    <glyph glyph-name="emdash" unicode="&#x2014;" horiz-adv-x="1302" 
d="M0 509h1302v-150h-1302v150z" />
    <glyph glyph-name="quoteleft" unicode="&#x2018;" horiz-adv-x="488" 
d="M378 1399l10 -21q-66 -26 -103.5 -56t-65.5 -78q-41 -71 -48 -139q28 9 48 9q55 0 89.5 -33t34.5 -84t-34.5 -86.5t-83.5 -35.5q-60 0 -97 48t-37 126t37.5 155t98.5 126q66 52 151 69z" />
    <glyph glyph-name="quoteright" unicode="&#x2019;" horiz-adv-x="488" 
d="M100 875l-9 21q65 27 103 57t65 77q42 72 48 140q-27 -9 -47 -9q-55 0 -90 32.5t-35 84.5q0 50 35 86t84 36q60 0 97 -48t37 -127q0 -78 -37.5 -154.5t-99.5 -125.5q-65 -52 -151 -70z" />
    <glyph glyph-name="quotesinglbase" unicode="&#x201a;" horiz-adv-x="488" 
d="M100 -298l-9 21q65 27 103 57t65 77q42 72 48 140q-27 -9 -47 -9q-55 0 -90 32.5t-35 84.5q0 50 35 86t84 36q60 0 97 -48t37 -127q0 -78 -37.5 -154.5t-99.5 -125.5q-65 -52 -151 -70z" />
    <glyph glyph-name="quotedblleft" unicode="&#x201c;" horiz-adv-x="829" 
d="M378 1399l10 -21q-66 -26 -103.5 -56t-65.5 -78q-41 -71 -48 -139q28 9 48 9q55 0 89.5 -33t34.5 -84t-34.5 -86.5t-83.5 -35.5q-60 0 -97 48t-37 126t37.5 155t98.5 126q66 52 151 69zM720 1399l9 -21q-66 -26 -103.5 -56t-64.5 -78q-42 -71 -49 -139q28 9 48 9
q55 0 89.5 -33t34.5 -84t-34.5 -86.5t-83.5 -35.5q-60 0 -97 48t-37 126t37.5 155t99.5 126q65 52 151 69z" />
    <glyph glyph-name="quotedblright" unicode="&#x201d;" horiz-adv-x="829" 
d="M441 875l-9 21q66 27 103.5 57t65.5 77q41 72 48 140q-28 -9 -48 -9q-55 0 -89.5 32.5t-34.5 84.5q0 50 34.5 86t83.5 36q60 0 97 -48t37 -127q0 -78 -37.5 -154.5t-99.5 -125.5q-65 -52 -151 -70zM100 875l-9 21q65 27 103 57t65 77q42 72 48 140q-27 -9 -47 -9
q-55 0 -90 32.5t-35 84.5q0 50 35 86t84 36q60 0 97 -48t37 -127q0 -78 -37.5 -154.5t-99.5 -125.5q-65 -52 -151 -70z" />
    <glyph glyph-name="quotedblbase" unicode="&#x201e;" horiz-adv-x="829" 
d="M441 -298l-9 21q66 27 103.5 57t65.5 77q41 72 48 140q-28 -9 -48 -9q-55 0 -89.5 32.5t-34.5 84.5q0 50 34.5 86t83.5 36q60 0 97 -48t37 -127q0 -78 -37.5 -154.5t-99.5 -125.5q-65 -52 -151 -70zM100 -298l-9 21q65 27 103 57t65 77q42 72 48 140q-27 -9 -47 -9
q-55 0 -90 32.5t-35 84.5q0 50 35 86t84 36q60 0 97 -48t37 -127q0 -78 -37.5 -154.5t-99.5 -125.5q-65 -52 -151 -70z" />
    <glyph glyph-name="dagger" unicode="&#x2020;" 
d="M527 -264h-46l-1 181q0 184 -20 316.5t-76 310.5q52 78 73.5 143t28.5 164q-59 -4 -91 -12t-119 -39q-64 -22 -97 -22q-39 0 -63.5 26.5t-24.5 68.5q0 41 26 69.5t62 28.5q26 0 48 -8l64 -24q21 -8 91 -29q47 -13 104 -19q-5 50 -9 74t-16 66q-18 66 -35 120
q-21 65 -25.5 84t-4.5 38q0 48 30.5 79t77.5 31q46 0 76.5 -31t30.5 -77l-30 -124q-17 -53 -35 -120q-12 -43 -16 -66.5t-9 -73.5q57 6 104 19q71 21 91 29l64 24q22 8 45 8q39 0 65 -28t26 -70t-24 -68.5t-62 -26.5q-35 0 -99 22q-87 31 -118.5 39t-91.5 12
q4 -63 12.5 -103t29.5 -92q23 -56 60 -112q-55 -178 -75.5 -310.5t-20.5 -316.5v-181z" />
    <glyph glyph-name="daggerdbl" unicode="&#x2021;" 
d="M384 551q51 99 71.5 159.5t30.5 140.5q-59 -4 -91 -12t-119 -39q-64 -22 -97 -22q-39 0 -63.5 26.5t-24.5 68.5q0 41 26 69.5t62 28.5q26 0 48 -8l64 -24q21 -8 91 -29q47 -13 104 -19q-5 50 -9 74t-16 66q-18 66 -35 120q-21 65 -25.5 84t-4.5 38q0 48 30.5 79t77.5 31
q46 0 76.5 -31t30.5 -77l-30 -124q-17 -53 -35 -120q-12 -43 -16 -66.5t-9 -73.5q57 6 104 19q71 21 91 29l64 24q22 8 45 8q39 0 65 -28t26 -70t-24 -68.5t-62 -26.5q-35 0 -99 22q-87 31 -118.5 39t-91.5 12q11 -81 28 -131t74 -169q-57 -119 -74 -169.5t-28 -130.5
q60 4 91.5 11.5t118.5 39.5q64 22 97 22q40 0 64 -26.5t24 -68.5q0 -41 -25.5 -70t-62.5 -29q-26 0 -48 9l-64 24q-20 8 -91 28q-47 14 -104 20q5 -50 9 -74t16 -66q18 -66 35 -120q21 -65 25.5 -84t4.5 -39q0 -47 -30.5 -78t-76.5 -31t-77 31t-31 77l30 124q17 53 35 120
q12 42 16 66t9 74q-57 -6 -104 -20q-70 -20 -91 -28l-64 -24q-22 -9 -45 -9q-39 0 -65 28.5t-26 70.5q0 41 24 68t62 27q35 0 99 -22q88 -32 119.5 -39.5t90.5 -11.5q-10 80 -27 130.5t-75 169.5z" />
    <glyph glyph-name="bullet" unicode="&#x2022;" horiz-adv-x="1365" 
d="M683 982q117 0 199 -83.5t82 -202.5q0 -118 -82.5 -202t-198.5 -84t-199 84t-83 203q0 62 26 119.5t74 98.5q78 67 182 67z" />
    <glyph glyph-name="ellipsis" unicode="&#x2026;" horiz-adv-x="1501" 
d="M250 226q50 0 85.5 -35.5t35.5 -86.5q0 -50 -35.5 -85.5t-85.5 -35.5t-85.5 35.5t-35.5 85.5q0 51 35.5 86.5t85.5 35.5zM750 226q51 0 86 -35.5t35 -86.5q0 -50 -35 -85.5t-86 -35.5q-50 0 -85.5 35.5t-35.5 85.5q0 51 35.5 86.5t85.5 35.5zM1251 226q50 0 85.5 -35.5
t35.5 -86.5q0 -50 -35.5 -85.5t-85.5 -35.5q-51 0 -86 35.5t-35 85.5q0 51 35.5 86.5t85.5 35.5z" />
    <glyph glyph-name="perthousand" unicode="&#x2030;" horiz-adv-x="2293" 
d="M1565 313q0 129 91 225q109 115 264 115q150 0 257 -116q89 -96 89 -216q0 -162 -131 -263q-99 -76 -224 -76q-69 0 -133.5 26t-114.5 73q-98 93 -98 232zM1708 315q0 -71 22 -137t59 -108q58 -66 138 -66q69 0 121 58q82 92 82 252q0 167 -82 255q-57 62 -133 62
q-74 0 -130 -70q-36 -43 -56.5 -109t-20.5 -137zM227 -191l-36 29l924 1259l-35 -19q-104 -54 -172 -74.5t-146 -20.5q-41 0 -82 9q33 -54 45.5 -92t12.5 -85q0 -114 -82 -209q-51 -61 -122.5 -94t-149.5 -33q-74 0 -142.5 29.5t-122.5 83.5q-92 94 -92 216q0 60 24 119
t68 107q50 55 119.5 86t143.5 31q50 0 94.5 -13.5t98.5 -44.5q68 -41 100.5 -52t80.5 -11q120 0 270 76q98 50 210 147h60v-13zM170 813q0 -71 21.5 -137t58.5 -108q59 -66 139 -66q69 0 121 58q81 92 81 252q0 167 -81 255q-57 62 -134 62q-73 0 -130 -70
q-35 -43 -55.5 -109t-20.5 -137zM786 313q0 129 92 225q109 115 263 115q150 0 257 -116q89 -96 89 -216q0 -162 -131 -263q-98 -76 -223 -76q-69 0 -133.5 26t-114.5 73q-99 93 -99 232zM930 315q0 -71 21.5 -137t58.5 -108q59 -66 139 -66q69 0 121 58q82 92 82 252
q0 167 -82 255q-57 62 -133 62q-74 0 -131 -70q-35 -43 -55.5 -109t-20.5 -137z" />
    <glyph glyph-name="guilsinglleft" unicode="&#x2039;" horiz-adv-x="485" 
d="M268 436l123 -256q9 -20 9 -28l-15 -13q-11 0 -29 18l-253 250q-26 26 -26 33q0 8 24 29l262 235l12 11q7 6 15 6q5 0 10 -5t5 -11q0 -11 -9 -27z" />
    <glyph glyph-name="guilsinglright" unicode="&#x203a;" horiz-adv-x="485" 
d="M216 423l-122 257q-10 20 -10 28l15 13q11 0 29 -18l253 -250q26 -26 26 -33q0 -8 -23 -29l-263 -235l-12 -11q-7 -6 -14 -6q-6 0 -10.5 5t-4.5 11q0 11 8 27z" />
    <glyph glyph-name="trademark" unicode="&#x2122;" horiz-adv-x="1945" 
d="M367 1338q-151 0 -210 -26q-44 -19 -69 -57.5t-39 -108.5l-22 2l11 217h801l11 -217l-23 -2q-14 70 -37.5 106t-69.5 57q-31 15 -79.5 22t-121.5 7h-15v-569q0 -57 6.5 -84t23.5 -44q32 -32 93 -32v-22h-383v22q61 0 93 32q17 17 23.5 44t6.5 84v569zM1894 1343
q-41 -2 -64.5 -12t-39.5 -32q-19 -28 -19 -115v-415q0 -57 6.5 -84.5t24.5 -43.5q33 -32 92 -32v-22h-384v22q65 3 93 32q18 17 24 44t6 84v480l-293 -662h-18l-292 652v-470q0 -57 6.5 -84t23.5 -44q32 -32 93 -32v-22h-279v22q61 0 92 32q18 17 24.5 44t6.5 84v415
q0 45 -4.5 72t-14.5 42q-16 23 -39 33t-65 12v22h261l251 -594l259 594h249v-22z" />
    <glyph glyph-name="Omega" unicode="&#x2126;" horiz-adv-x="1365" 
d="M1411 248l-78 -248h-568v94q101 50 153.5 89.5t102.5 100.5q75 92 114.5 207t39.5 240q0 114 -34 224t-95 195q-64 88 -156.5 133.5t-206.5 45.5q-229 0 -359 -174q-63 -84 -98 -194.5t-35 -224.5q0 -123 39 -238t112 -209q51 -65 104 -105t155 -90v-94h-570l-77 248h39
q19 -54 41.5 -82t60.5 -45q51 -22 158 -22l222 -6v11q-101 39 -157 71.5t-110 82.5q-103 95 -159.5 220t-57.5 246l-1 30q0 234 178 424l7 7q194 202 509 202q331 0 525 -223q79 -91 121.5 -201t42.5 -223q0 -137 -58 -264t-163 -222q-52 -47 -107 -78.5t-154 -71.5v-11
l234 7q105 0 154 25q33 16 53.5 43t39.5 80h39z" />
    <glyph glyph-name="partialdiff" unicode="&#x2202;" horiz-adv-x="1024" 
d="M298 1372l20 35q137 -56 255 -146q106 -81 176.5 -180.5t131.5 -253.5q42 -108 60.5 -191.5t18.5 -169.5q0 -113 -34 -202t-104 -161q-129 -132 -313 -132q-155 0 -271 94q-84 67 -129 166t-45 213q0 125 53.5 232.5t146.5 168.5q52 34 116 53.5t125 19.5q92 0 170 -40
q27 -14 47 -31.5t49 -53.5l20 -23q-35 102 -62 160q-66 141 -181 261q-41 42 -111 92.5t-139 88.5zM515 870q-76 0 -143 -50q-64 -47 -106.5 -154.5t-42.5 -220.5q0 -107 41 -219q34 -94 87 -142q72 -65 156 -65q70 0 142 53q69 51 110 154.5t41 229.5q0 113 -36 210.5
t-96 148.5q-64 55 -153 55z" />
    <glyph glyph-name="Delta" unicode="&#x2206;" horiz-adv-x="1365" 
d="M723 1398l630 -1398h-1340l628 1398h82zM634 1205l-418 -932q-30 -66 -30 -99q0 -30 19 -48q17 -18 76 -18h835z" />
    <glyph glyph-name="product" unicode="&#x220f;" horiz-adv-x="1365" 
d="M28 1365h1309v-37h-47q-48 0 -73 -6.5t-39 -22.5q-14 -17 -19 -43.5t-5 -91.5v-1441q0 -63 5 -90.5t19 -43.5q26 -29 107 -29h50v-38h-536v38h44q47 0 72.5 6.5t39.5 22.5t19 43t5 91v1441q0 65 -5 91.5t-19 43.5q-14 16 -39 22.5t-73 6.5h-317q-48 0 -73 -6.5t-39 -22.5
q-15 -17 -19.5 -43t-4.5 -92v-1441q0 -64 4.5 -91t19.5 -43q25 -29 107 -29h50v-38h-537v38h44q48 0 73.5 6.5t39.5 22.5t18.5 42.5t4.5 91.5v1441q0 65 -4.5 91.5t-18.5 43.5q-15 16 -39.5 22.5t-73.5 6.5h-50v37z" />
    <glyph glyph-name="summation" unicode="&#x2211;" horiz-adv-x="1365" 
d="M115 1365h1058v-328h-38q-18 141 -78 202q-39 39 -100 55.5t-166 16.5h-464l420 -790l-488 -899h540q112 0 176 17t116 62q89 76 128 232h38l-69 -411h-1073l499 919z" />
    <glyph glyph-name="fraction" unicode="&#x2215;" horiz-adv-x="137" 
d="M386 1365h60l-695 -1365h-60z" />
    <glyph glyph-name="periodcentered" unicode="&#x2219;" horiz-adv-x="339" 
d="M170 873q70 0 119.5 -50t49.5 -120t-49.5 -119.5t-119.5 -49.5q-71 0 -120.5 49.5t-49.5 119.5t50 120t120 50z" />
    <glyph glyph-name="radical" unicode="&#x221a;" horiz-adv-x="1365" 
d="M1331 1686v-57h-243l-379 -1629h-171l-176 736h-328v57h468l161 -690l372 1583h296z" />
    <glyph glyph-name="infinity" unicode="&#x221e;" horiz-adv-x="1365" 
d="M642 585q-71 -112 -117 -156q-85 -82 -195 -82t-196 73q-53 46 -82 112.5t-29 141.5q0 82 33 157.5t91 124.5q90 78 206 78q190 0 345 -251q17 25 25 38q55 86 76.5 112.5t53.5 48.5q77 54 169 54q118 0 209 -81q54 -48 83 -116.5t29 -146.5q0 -84 -33.5 -158t-93.5 -123
q-46 -38 -103.5 -59t-113.5 -21q-100 0 -192.5 66t-164.5 188zM726 741q82 -130 144 -185q103 -93 214 -93q88 0 147 64.5t59 159.5q0 103 -73.5 163.5t-198.5 60.5q-89 0 -158 -35q-41 -21 -69.5 -49.5t-64.5 -85.5zM608 634q-83 130 -135 179q-91 87 -202 87
q-68 0 -117 -40q-36 -30 -57.5 -77.5t-21.5 -100.5q0 -97 70 -155t188 -58q81 0 143 32q38 20 66 48t66 85z" />
    <glyph glyph-name="integral" unicode="&#x222b;" horiz-adv-x="1026" 
d="M601 975v-945q0 -170 -13 -252.5t-50 -150.5q-91 -166 -269 -166q-63 0 -115.5 21t-87.5 59q-26 28 -40.5 64t-14.5 70q0 50 32 83.5t80 33.5q43 0 74.5 -29.5t31.5 -70.5q0 -25 -12 -48q-13 -25 -13 -45q0 -27 18 -43.5t46 -16.5q65 0 108 82q23 45 36 115.5t13 147.5
v979q0 132 5 185q10 135 58 222q91 166 270 166q130 0 202 -80q26 -28 40.5 -64t14.5 -70q0 -50 -32 -83.5t-79 -33.5q-44 0 -75.5 29.5t-31.5 70.5q0 24 12 48q13 25 13 44q0 28 -17.5 45t-46.5 17q-68 0 -111 -89q-7 -16 -16.5 -49t-13.5 -56q-6 -36 -11 -96t-5 -94z" />
    <glyph glyph-name="approxequal" unicode="&#x2248;" 
d="M927 947l34 -18q-47 -73 -117 -128q-88 -70 -179 -70q-47 0 -135 28q-115 37 -163.5 48t-92.5 11q-51 0 -92 -23q-30 -16 -84 -75q-6 -7 -18 -20l-34 19q138 200 301 200q61 0 196 -45q117 -37 173 -37q57 0 111.5 28.5t99.5 81.5zM927 628l34 -18q-46 -73 -117 -128
q-88 -70 -179 -70q-47 0 -135 28q-115 36 -163.5 47t-92.5 11q-51 0 -92 -22q-30 -16 -84 -75q-6 -7 -18 -20l-34 19q138 199 301 199q61 0 196 -44q116 -38 176 -38q55 0 109.5 29t98.5 82z" />
    <glyph glyph-name="notequal" unicode="&#x2260;" 
d="M505 795l60 225l59 -16l-55 -209h371v-61h-388l-35 -130h423v-61h-439l-60 -225l-60 16l56 209h-371v61h388l35 130h-423v61h439z" />
    <glyph glyph-name="lessequal" unicode="&#x2264;" 
d="M928 1260v-78l-635 -413l635 -425v-209l-849 567v14zM79 73h849v-73h-849v73z" />
    <glyph glyph-name="greaterequal" unicode="&#x2265;" 
d="M79 73h849v-73h-849v73zM79 135v79l635 413l-635 424v209l849 -571v-13z" />
    <glyph glyph-name="lozenge" unicode="&#x25ca;" horiz-adv-x="1365" 
d="M683 1419l531 -736l-531 -736l-532 736zM683 1238l-404 -555l404 -554l403 554z" />
    <glyph glyph-name="apple" unicode="&#xf000;" horiz-adv-x="1365" 
d="M985 1416v-21q0 -111 -65 -200q-51 -70 -134 -112q-28 -14 -47 -18t-58 -4q0 131 69 222q41 56 101 89.5t134 43.5zM1278 935q-89 -68 -127 -133.5t-38 -150.5q0 -129 87 -227q26 -28 50 -44.5t66 -34.5q-37 -90 -67.5 -146.5t-71.5 -110.5q-110 -142 -206 -142
q-41 0 -84 17l-83 36q-28 11 -96 6q-64 -5 -77 -10l-87 -35q-42 -17 -78 -17q-99 0 -204 135q-84 108 -140 263q-55 149 -55 288q0 143 64.5 259t168.5 160q67 29 150 29q66 0 159 -36q67 -26 96 -26q34 0 89 21q79 30 111 37.5t78 7.5q108 0 198 -54q52 -31 97 -92z" />
    <glyph glyph-name="fi" unicode="&#xf001;" horiz-adv-x="1073" 
d="M175 850v179q0 157 67 248q95 131 304 131q77 0 146.5 -19t113.5 -52q58 -44 58 -95q0 -33 -22 -55t-55 -22q-32 0 -51.5 18.5t-23.5 52.5l-3 27q-6 51 -54 82t-122 31q-96 0 -146 -43q-24 -20 -36.5 -45.5t-18.5 -64.5q-7 -52 -7 -98v-275h440l138 17v-654
q0 -68 8 -99.5t31 -52.5q28 -27 103 -41v-20h-441v20q60 8 86 22.5t42 49.5q11 23 15.5 69.5t4.5 134.5v247q0 100 -5 142t-21 71q-17 30 -49 43t-89 13h-263v-523l1 -76q0 -68 8 -99.5t31 -52.5q28 -27 103 -41v-20h-441v20q60 8 86 22.5t42 49.5q11 23 15.5 69.5
t4.5 134.5v516h-145v38h145z" />
    <glyph glyph-name="fl" unicode="&#xf002;" horiz-adv-x="1073" 
d="M175 850v244q0 88 21.5 139t75.5 93q48 38 119.5 60t147.5 22q83 0 166 -28l198 25v-1192q0 -68 8 -99.5t31 -52.5q28 -27 103 -41v-20h-441v20q60 8 86 22.5t42 49.5q11 23 15.5 69.5t4.5 134.5v821q0 86 -11 131t-39 73q-24 25 -68.5 40t-94.5 15t-94.5 -15t-68.5 -40
q-28 -28 -39.5 -74t-11.5 -132v-265h198v-38h-198v-523l1 -76q0 -68 8 -99.5t31 -52.5q28 -27 103 -41v-20h-441v20q60 8 86 22.5t42 49.5q11 23 15.5 69.5t4.5 134.5v516h-145v38h145z" />
    <glyph glyph-name="glyph242" horiz-adv-x="1420" 
d="M496 1748q41 0 69.5 -28.5t28.5 -69.5q0 -40 -28.5 -69t-69.5 -29q-40 0 -69 29t-29 69q0 41 29 69.5t69 28.5zM871 1747q40 0 68.5 -28t28.5 -68t-28.5 -68.5t-68.5 -28.5t-68.5 28.5t-28.5 68.5t28.5 68t68.5 28z" />
    <glyph glyph-name="glyph243" horiz-adv-x="1420" 
d="M662 1526l197 246h200l-348 -246h-49z" />
    <glyph glyph-name="glyph244" horiz-adv-x="1420" 
d="M730 1526h-49l-347 246h199z" />
    <glyph glyph-name="glyph245" horiz-adv-x="1420" 
d="M690 1659l-238 -145h-55l271 254h43l271 -254h-54z" />
    <glyph glyph-name="glyph246" horiz-adv-x="1420" 
d="M901 1722h23q3 -22 3 -32q0 -62 -35.5 -101.5t-92.5 -39.5q-40 0 -75 12.5t-112 53.5q-40 22 -67 22q-65 0 -73 -66h-23q-1 14 -1 22q0 68 33 108t90 40q54 0 116 -32l45 -24q60 -31 99 -31q31 0 46 14.5t24 53.5z" />
    <glyph glyph-name="glyph247" horiz-adv-x="1276" 
d="M451 1748q41 0 69.5 -28.5t28.5 -69.5q0 -40 -28.5 -69t-69.5 -29q-40 0 -69 29t-29 69q0 41 28.5 69.5t69.5 28.5zM826 1747q40 0 68.5 -28t28.5 -68t-28.5 -68.5t-68.5 -28.5t-68.5 28.5t-28.5 68.5t28.5 68t68.5 28z" />
    <glyph glyph-name="glyph248" horiz-adv-x="1276" 
d="M590 1526l196 246h200l-348 -246h-48z" />
    <glyph glyph-name="glyph249" horiz-adv-x="1276" 
d="M728 1526h-49l-348 246h200z" />
    <glyph glyph-name="glyph250" horiz-adv-x="1276" 
d="M639 1659l-238 -145h-55l271 254h43l271 -254h-54z" />
    <glyph glyph-name="glyph251" horiz-adv-x="737" 
d="M244 1748q41 0 69.5 -28.5t28.5 -69.5q0 -40 -28.5 -69t-69.5 -29q-40 0 -68.5 29t-28.5 69q0 41 28.5 69.5t68.5 28.5zM494 1747q40 0 68 -28t28 -68t-28 -68.5t-68 -28.5t-68.5 28.5t-28.5 68.5t28.5 68t68.5 28z" />
    <glyph glyph-name="glyph252" horiz-adv-x="737" 
d="M293 1526l197 246h199l-347 -246h-49z" />
    <glyph glyph-name="glyph253" horiz-adv-x="737" 
d="M430 1526h-48l-348 246h200z" />
    <glyph glyph-name="glyph254" horiz-adv-x="737" 
d="M369 1659l-238 -145h-55l271 254h43l271 -254h-55z" />
    <glyph glyph-name="glyph255" horiz-adv-x="1547" 
d="M978 1722h23q3 -22 3 -32q0 -62 -36 -101.5t-92 -39.5q-41 0 -76 12.5t-111 53.5q-41 22 -67 22q-65 0 -73 -66h-23q-1 14 -1 22q0 68 33 108t89 40q54 0 116 -32l46 -24q59 -31 99 -31q30 0 45.5 14.5t24.5 53.5z" />
    <glyph glyph-name="glyph256" horiz-adv-x="1661" 
d="M644 1748q41 0 69.5 -28.5t28.5 -69.5q0 -40 -28.5 -69t-69.5 -29q-40 0 -69 29t-29 69q0 41 29 69.5t69 28.5zM1019 1747q40 0 68.5 -28t28.5 -68t-28.5 -68.5t-68.5 -28.5t-68.5 28.5t-28.5 68.5t28.5 68t68.5 28z" />
    <glyph glyph-name="glyph257" horiz-adv-x="1661" 
d="M755 1526l196 246h200l-348 -246h-48z" />
    <glyph glyph-name="glyph258" horiz-adv-x="1661" 
d="M893 1526h-49l-348 246h200z" />
    <glyph glyph-name="glyph259" horiz-adv-x="1661" 
d="M830 1659l-238 -145h-54l270 254h44l270 -254h-54z" />
    <glyph glyph-name="glyph260" horiz-adv-x="1661" 
d="M1035 1722h23q2 -22 2 -32q0 -62 -35.5 -101.5t-91.5 -39.5q-41 0 -76 12.5t-111 53.5q-41 22 -67 22q-65 0 -73 -66h-24v22q0 68 33 108t89 40q54 0 116 -32l46 -24q59 -31 99 -31q30 0 45.5 14.5t24.5 53.5z" />
    <glyph glyph-name="glyph261" horiz-adv-x="1059" 
d="M529 1622l238 146h54l-270 -254h-44l-270 254h54z" />
    <glyph glyph-name="glyph262" horiz-adv-x="1542" 
d="M625 1748q40 0 69 -28.5t29 -69.5q0 -40 -29 -69t-69 -29q-41 0 -69.5 29t-28.5 69q0 41 28.5 69.5t69.5 28.5zM1000 1747q40 0 68 -28t28 -68t-28 -68.5t-68 -28.5t-68.5 28.5t-28.5 68.5t28.5 68t68.5 28z" />
    <glyph glyph-name="glyph263" horiz-adv-x="1542" 
d="M737 1526l197 246h200l-348 -246h-49z" />
    <glyph glyph-name="glyph264" horiz-adv-x="1542" 
d="M873 1526h-48l-348 246h200z" />
    <glyph glyph-name="glyph265" horiz-adv-x="1542" 
d="M825 1659l-238 -145h-54l271 254h43l271 -254h-55z" />
    <glyph glyph-name="glyph266" horiz-adv-x="1345" 
d="M539 1748q41 0 69.5 -28.5t28.5 -69.5q0 -40 -28.5 -69t-69.5 -29q-40 0 -68.5 29t-28.5 69q0 41 28.5 69.5t68.5 28.5zM914 1747q40 0 68.5 -28t28.5 -68t-28.5 -68.5t-68.5 -28.5t-68 28.5t-28 68.5t28 68t68 28z" />
    <glyph glyph-name="glyph267" horiz-adv-x="496" 
d="M126 1240q36 0 62.5 -26t26.5 -63q0 -36 -26.5 -62t-62.5 -26q-37 0 -63 25.5t-26 62.5t26 63t63 26zM371 1240q36 0 62 -26t26 -62q0 -37 -26 -62.5t-62 -25.5t-62 25.5t-26 62.5q0 36 26 62t62 26z" />
  </font>
</defs>
</svg>
